<svg width="1921" height="228" viewBox="0 0 1921 228" fill="none" xmlns="http://www.w3.org/2000/svg">
<g opacity="0.7" filter="url(#filter0_i_625_19756)">
<rect x="814.031" y="88" width="142" height="72" rx="22" transform="rotate(180 814.031 88)" fill="#9A9AA5" fill-opacity="0.1"/>
</g>
<g opacity="0.5" filter="url(#filter1_i_625_19756)">
<rect x="651.984" y="108" width="142" height="72" rx="22" transform="rotate(180 651.984 108)" fill="#9A9AA5" fill-opacity="0.1"/>
</g>
<g opacity="0.3" filter="url(#filter2_i_625_19756)">
<rect x="489.938" y="148" width="142" height="72" rx="22" transform="rotate(180 489.938 148)" fill="#9A9AA5" fill-opacity="0.1"/>
</g>
<g opacity="0.15" filter="url(#filter3_i_625_19756)">
<rect x="327.891" y="228" width="142" height="72" rx="22" transform="rotate(180 327.891 228)" fill="#9A9AA5" fill-opacity="0.1"/>
</g>
<g filter="url(#filter4_di_625_19756)">
<rect x="834.031" y="10" width="253" height="82" rx="25" fill="#09090B"/>
<path d="M873.611 40.7H876.911V50.78L885.791 40.7H889.781L881.621 50L890.321 62H886.451L879.431 52.31L876.911 55.16V62H873.611V40.7ZM890.267 54.05C890.267 48.98 893.267 45.74 897.857 45.74C901.637 45.74 904.877 48.26 905.057 53.93V54.98H893.687C893.867 57.89 895.367 59.6 897.857 59.6C899.417 59.6 900.827 58.7 901.487 57.2L904.847 57.44C903.887 60.47 901.097 62.36 897.857 62.36C893.267 62.36 890.267 59.12 890.267 54.05ZM893.717 52.55H901.667C901.277 49.55 899.627 48.5 897.857 48.5C895.547 48.5 894.077 50 893.717 52.55ZM905.677 46.1H908.947L913.417 58.58L917.767 46.1H921.007L914.647 63.86C913.987 65.66 912.787 66.5 910.807 66.5H908.437V63.89H910.327C911.167 63.89 911.617 63.59 911.917 62.84L912.427 61.52H911.437L905.677 46.1ZM930.332 40.7H944.162V43.7H933.632V50.12H943.622V53.06H933.632V62H930.332V40.7ZM946.343 54.05C946.343 48.98 949.343 45.74 953.933 45.74C957.713 45.74 960.953 48.26 961.133 53.93V54.98H949.763C949.943 57.89 951.443 59.6 953.933 59.6C955.493 59.6 956.903 58.7 957.563 57.2L960.923 57.44C959.963 60.47 957.173 62.36 953.933 62.36C949.343 62.36 946.343 59.12 946.343 54.05ZM949.793 52.55H957.743C957.353 49.55 955.703 48.5 953.933 48.5C951.623 48.5 950.153 50 949.793 52.55ZM963.65 50.87C964.28 47.66 966.8 45.74 970.46 45.74C974.81 45.74 977.18 48.14 977.18 52.49V58.4C977.18 59.18 977.51 59.45 978.14 59.45H978.8V62H977.78C976.34 62.03 974.36 61.79 974.21 59.57C973.52 61.07 971.75 62.36 969.11 62.36C965.93 62.36 963.38 60.65 963.38 57.83C963.38 54.65 965.75 53.72 969.41 53L973.94 52.13C973.91 49.58 972.77 48.38 970.46 48.38C968.63 48.38 967.43 49.31 966.98 51.08L963.65 50.87ZM966.74 57.77C966.74 58.91 967.73 59.87 969.8 59.87C972.17 59.87 974 58.16 974 54.74V54.59L970.64 55.19C968.48 55.58 966.74 55.76 966.74 57.77ZM981.649 42.5H984.889V46.1H989.119V48.74H984.889V57.41C984.889 58.7 985.519 59.36 986.719 59.36H989.089V62H986.419C983.329 62 981.649 60.41 981.649 57.41V48.74H979.249V46.1H981.649V42.5ZM1004.9 62H1001.9L1001.87 59.45C1001.03 61.49 999.201 62.36 997.161 62.36C993.651 62.36 991.821 59.81 991.821 56.33V46.1H995.061V55.34C995.061 58.13 995.871 59.63 998.001 59.63C1000.25 59.63 1001.69 58.13 1001.69 55.34V46.1H1004.9V62ZM1008.83 46.1H1011.8L1011.89 49.04C1012.43 47.03 1013.63 46.1 1015.67 46.1H1017.17V48.74H1015.64C1013.15 48.74 1012.07 50.09 1012.07 52.73V62H1008.83V46.1ZM1018.05 54.05C1018.05 48.98 1021.05 45.74 1025.64 45.74C1029.42 45.74 1032.66 48.26 1032.84 53.93V54.98H1021.47C1021.65 57.89 1023.15 59.6 1025.64 59.6C1027.2 59.6 1028.61 58.7 1029.27 57.2L1032.63 57.44C1031.67 60.47 1028.88 62.36 1025.64 62.36C1021.05 62.36 1018.05 59.12 1018.05 54.05ZM1021.5 52.55H1029.45C1029.06 49.55 1027.41 48.5 1025.64 48.5C1023.33 48.5 1021.86 50 1021.5 52.55ZM1045.08 51.11C1044.75 49.43 1043.16 48.44 1041.54 48.44C1039.92 48.44 1038.63 49.25 1038.66 50.63C1038.69 52.07 1040.52 52.64 1042.14 52.94C1046.1 53.66 1048.65 54.74 1048.65 57.86C1048.65 60.98 1045.5 62.36 1042.14 62.36C1038.06 62.36 1035.15 60.32 1034.91 56.99L1038.24 56.78C1038.54 58.55 1039.92 59.66 1042.11 59.66C1043.49 59.66 1045.29 59.18 1045.29 57.71C1045.29 56 1043.28 55.82 1041.57 55.43C1038.21 54.71 1035.3 53.81 1035.3 50.75C1035.3 47.63 1037.82 45.74 1041.78 45.74C1045.23 45.74 1047.87 47.75 1048.41 50.93L1045.08 51.11Z" fill="white"/>
</g>
<g opacity="0.7" filter="url(#filter5_i_625_19756)">
<rect width="142" height="72" rx="22" transform="matrix(1 0 0 -1 1107.03 88)" fill="#9A9AA5" fill-opacity="0.1"/>
</g>
<g opacity="0.5" filter="url(#filter6_i_625_19756)">
<rect width="142" height="72" rx="22" transform="matrix(1 0 0 -1 1269.08 108)" fill="#9A9AA5" fill-opacity="0.1"/>
</g>
<g opacity="0.3" filter="url(#filter7_i_625_19756)">
<rect width="142" height="72" rx="22" transform="matrix(1 0 0 -1 1431.12 148)" fill="#9A9AA5" fill-opacity="0.1"/>
</g>
<g opacity="0.15" filter="url(#filter8_i_625_19756)">
<rect width="142" height="72" rx="22" transform="matrix(1 0 0 -1 1593.17 228)" fill="#9A9AA5" fill-opacity="0.1"/>
</g>
<defs>
<filter id="filter0_i_625_19756" x="672.031" y="15" width="142" height="73" filterUnits="userSpaceOnUse" color-interpolation-filters="sRGB">
<feFlood flood-opacity="0" result="BackgroundImageFix"/>
<feBlend mode="normal" in="SourceGraphic" in2="BackgroundImageFix" result="shape"/>
<feColorMatrix in="SourceAlpha" type="matrix" values="0 0 0 0 0 0 0 0 0 0 0 0 0 0 0 0 0 0 127 0" result="hardAlpha"/>
<feOffset dy="-1"/>
<feGaussianBlur stdDeviation="2"/>
<feComposite in2="hardAlpha" operator="arithmetic" k2="-1" k3="1"/>
<feColorMatrix type="matrix" values="0 0 0 0 0.603922 0 0 0 0 0.603922 0 0 0 0 0.647059 0 0 0 0.1 0"/>
<feBlend mode="normal" in2="shape" result="effect1_innerShadow_625_19756"/>
</filter>
<filter id="filter1_i_625_19756" x="509.984" y="35" width="142" height="73" filterUnits="userSpaceOnUse" color-interpolation-filters="sRGB">
<feFlood flood-opacity="0" result="BackgroundImageFix"/>
<feBlend mode="normal" in="SourceGraphic" in2="BackgroundImageFix" result="shape"/>
<feColorMatrix in="SourceAlpha" type="matrix" values="0 0 0 0 0 0 0 0 0 0 0 0 0 0 0 0 0 0 127 0" result="hardAlpha"/>
<feOffset dy="-1"/>
<feGaussianBlur stdDeviation="2"/>
<feComposite in2="hardAlpha" operator="arithmetic" k2="-1" k3="1"/>
<feColorMatrix type="matrix" values="0 0 0 0 0.603922 0 0 0 0 0.603922 0 0 0 0 0.647059 0 0 0 0.1 0"/>
<feBlend mode="normal" in2="shape" result="effect1_innerShadow_625_19756"/>
</filter>
<filter id="filter2_i_625_19756" x="347.938" y="75" width="142" height="73" filterUnits="userSpaceOnUse" color-interpolation-filters="sRGB">
<feFlood flood-opacity="0" result="BackgroundImageFix"/>
<feBlend mode="normal" in="SourceGraphic" in2="BackgroundImageFix" result="shape"/>
<feColorMatrix in="SourceAlpha" type="matrix" values="0 0 0 0 0 0 0 0 0 0 0 0 0 0 0 0 0 0 127 0" result="hardAlpha"/>
<feOffset dy="-1"/>
<feGaussianBlur stdDeviation="2"/>
<feComposite in2="hardAlpha" operator="arithmetic" k2="-1" k3="1"/>
<feColorMatrix type="matrix" values="0 0 0 0 0.603922 0 0 0 0 0.603922 0 0 0 0 0.647059 0 0 0 0.1 0"/>
<feBlend mode="normal" in2="shape" result="effect1_innerShadow_625_19756"/>
</filter>
<filter id="filter3_i_625_19756" x="185.891" y="155" width="142" height="73" filterUnits="userSpaceOnUse" color-interpolation-filters="sRGB">
<feFlood flood-opacity="0" result="BackgroundImageFix"/>
<feBlend mode="normal" in="SourceGraphic" in2="BackgroundImageFix" result="shape"/>
<feColorMatrix in="SourceAlpha" type="matrix" values="0 0 0 0 0 0 0 0 0 0 0 0 0 0 0 0 0 0 127 0" result="hardAlpha"/>
<feOffset dy="-1"/>
<feGaussianBlur stdDeviation="2"/>
<feComposite in2="hardAlpha" operator="arithmetic" k2="-1" k3="1"/>
<feColorMatrix type="matrix" values="0 0 0 0 0.603922 0 0 0 0 0.603922 0 0 0 0 0.647059 0 0 0 0.1 0"/>
<feBlend mode="normal" in2="shape" result="effect1_innerShadow_625_19756"/>
</filter>
<filter id="filter4_di_625_19756" x="813.131" y="0.1" width="294.8" height="123.8" filterUnits="userSpaceOnUse" color-interpolation-filters="sRGB">
<feFlood flood-opacity="0" result="BackgroundImageFix"/>
<feColorMatrix in="SourceAlpha" type="matrix" values="0 0 0 0 0 0 0 0 0 0 0 0 0 0 0 0 0 0 127 0" result="hardAlpha"/>
<feOffset dy="11"/>
<feGaussianBlur stdDeviation="10.45"/>
<feColorMatrix type="matrix" values="0 0 0 0 0.0352941 0 0 0 0 0.0352941 0 0 0 0 0.0431373 0 0 0 0.1 0"/>
<feBlend mode="normal" in2="BackgroundImageFix" result="effect1_dropShadow_625_19756"/>
<feBlend mode="normal" in="SourceGraphic" in2="effect1_dropShadow_625_19756" result="shape"/>
<feColorMatrix in="SourceAlpha" type="matrix" values="0 0 0 0 0 0 0 0 0 0 0 0 0 0 0 0 0 0 127 0" result="hardAlpha"/>
<feOffset dy="-1"/>
<feGaussianBlur stdDeviation="2"/>
<feComposite in2="hardAlpha" operator="arithmetic" k2="-1" k3="1"/>
<feColorMatrix type="matrix" values="0 0 0 0 0.603922 0 0 0 0 0.603922 0 0 0 0 0.647059 0 0 0 0.1 0"/>
<feBlend mode="normal" in2="shape" result="effect2_innerShadow_625_19756"/>
</filter>
<filter id="filter5_i_625_19756" x="1107.03" y="15" width="142" height="73" filterUnits="userSpaceOnUse" color-interpolation-filters="sRGB">
<feFlood flood-opacity="0" result="BackgroundImageFix"/>
<feBlend mode="normal" in="SourceGraphic" in2="BackgroundImageFix" result="shape"/>
<feColorMatrix in="SourceAlpha" type="matrix" values="0 0 0 0 0 0 0 0 0 0 0 0 0 0 0 0 0 0 127 0" result="hardAlpha"/>
<feOffset dy="-1"/>
<feGaussianBlur stdDeviation="2"/>
<feComposite in2="hardAlpha" operator="arithmetic" k2="-1" k3="1"/>
<feColorMatrix type="matrix" values="0 0 0 0 0.603922 0 0 0 0 0.603922 0 0 0 0 0.647059 0 0 0 0.1 0"/>
<feBlend mode="normal" in2="shape" result="effect1_innerShadow_625_19756"/>
</filter>
<filter id="filter6_i_625_19756" x="1269.08" y="35" width="142" height="73" filterUnits="userSpaceOnUse" color-interpolation-filters="sRGB">
<feFlood flood-opacity="0" result="BackgroundImageFix"/>
<feBlend mode="normal" in="SourceGraphic" in2="BackgroundImageFix" result="shape"/>
<feColorMatrix in="SourceAlpha" type="matrix" values="0 0 0 0 0 0 0 0 0 0 0 0 0 0 0 0 0 0 127 0" result="hardAlpha"/>
<feOffset dy="-1"/>
<feGaussianBlur stdDeviation="2"/>
<feComposite in2="hardAlpha" operator="arithmetic" k2="-1" k3="1"/>
<feColorMatrix type="matrix" values="0 0 0 0 0.603922 0 0 0 0 0.603922 0 0 0 0 0.647059 0 0 0 0.1 0"/>
<feBlend mode="normal" in2="shape" result="effect1_innerShadow_625_19756"/>
</filter>
<filter id="filter7_i_625_19756" x="1431.12" y="75" width="142" height="73" filterUnits="userSpaceOnUse" color-interpolation-filters="sRGB">
<feFlood flood-opacity="0" result="BackgroundImageFix"/>
<feBlend mode="normal" in="SourceGraphic" in2="BackgroundImageFix" result="shape"/>
<feColorMatrix in="SourceAlpha" type="matrix" values="0 0 0 0 0 0 0 0 0 0 0 0 0 0 0 0 0 0 127 0" result="hardAlpha"/>
<feOffset dy="-1"/>
<feGaussianBlur stdDeviation="2"/>
<feComposite in2="hardAlpha" operator="arithmetic" k2="-1" k3="1"/>
<feColorMatrix type="matrix" values="0 0 0 0 0.603922 0 0 0 0 0.603922 0 0 0 0 0.647059 0 0 0 0.1 0"/>
<feBlend mode="normal" in2="shape" result="effect1_innerShadow_625_19756"/>
</filter>
<filter id="filter8_i_625_19756" x="1593.17" y="155" width="142" height="73" filterUnits="userSpaceOnUse" color-interpolation-filters="sRGB">
<feFlood flood-opacity="0" result="BackgroundImageFix"/>
<feBlend mode="normal" in="SourceGraphic" in2="BackgroundImageFix" result="shape"/>
<feColorMatrix in="SourceAlpha" type="matrix" values="0 0 0 0 0 0 0 0 0 0 0 0 0 0 0 0 0 0 127 0" result="hardAlpha"/>
<feOffset dy="-1"/>
<feGaussianBlur stdDeviation="2"/>
<feComposite in2="hardAlpha" operator="arithmetic" k2="-1" k3="1"/>
<feColorMatrix type="matrix" values="0 0 0 0 0.603922 0 0 0 0 0.603922 0 0 0 0 0.647059 0 0 0 0.1 0"/>
<feBlend mode="normal" in2="shape" result="effect1_innerShadow_625_19756"/>
</filter>
</defs>
</svg>
