<svg width="391" height="204" viewBox="0 0 391 204" fill="none" xmlns="http://www.w3.org/2000/svg">
<g opacity="0.7" filter="url(#filter0_i_625_14667)">
<rect x="87.4688" y="64" width="142" height="50" rx="16" transform="rotate(180 87.4688 64)" fill="#9A9AA5" fill-opacity="0.1"/>
</g>
<g filter="url(#filter1_di_625_14667)">
<rect x="97.4688" y="10" width="196" height="60" rx="18" fill="#09090B"/>
<path d="M125.533 30.96H128.173V39.024L135.277 30.96H138.469L131.941 38.4L138.901 48H135.805L130.189 40.248L128.173 42.528V48H125.533V30.96ZM138.857 41.64C138.857 37.584 141.257 34.992 144.929 34.992C147.953 34.992 150.545 37.008 150.689 41.544V42.384H141.593C141.737 44.712 142.937 46.08 144.929 46.08C146.177 46.08 147.305 45.36 147.833 44.16L150.521 44.352C149.753 46.776 147.521 48.288 144.929 48.288C141.257 48.288 138.857 45.696 138.857 41.64ZM141.617 40.44H147.977C147.665 38.04 146.345 37.2 144.929 37.2C143.081 37.2 141.905 38.4 141.617 40.44ZM151.185 35.28H153.801L157.377 45.264L160.857 35.28H163.449L158.361 49.488C157.833 50.928 156.873 51.6 155.289 51.6H153.393V49.512H154.905C155.577 49.512 155.937 49.272 156.177 48.672L156.585 47.616H155.793L151.185 35.28ZM170.91 30.96H181.974V33.36H173.55V38.496H181.542V40.848H173.55V48H170.91V30.96ZM183.718 41.64C183.718 37.584 186.118 34.992 189.79 34.992C192.814 34.992 195.406 37.008 195.55 41.544V42.384H186.454C186.598 44.712 187.798 46.08 189.79 46.08C191.038 46.08 192.166 45.36 192.694 44.16L195.382 44.352C194.614 46.776 192.382 48.288 189.79 48.288C186.118 48.288 183.718 45.696 183.718 41.64ZM186.478 40.44H192.838C192.526 38.04 191.206 37.2 189.79 37.2C187.942 37.2 186.766 38.4 186.478 40.44ZM197.564 39.096C198.068 36.528 200.084 34.992 203.012 34.992C206.492 34.992 208.388 36.912 208.388 40.392V45.12C208.388 45.744 208.652 45.96 209.156 45.96H209.684V48H208.868C207.716 48.024 206.132 47.832 206.012 46.056C205.46 47.256 204.044 48.288 201.932 48.288C199.388 48.288 197.348 46.92 197.348 44.664C197.348 42.12 199.244 41.376 202.172 40.8L205.796 40.104C205.772 38.064 204.86 37.104 203.012 37.104C201.548 37.104 200.588 37.848 200.228 39.264L197.564 39.096ZM200.036 44.616C200.036 45.528 200.828 46.296 202.484 46.296C204.38 46.296 205.844 44.928 205.844 42.192V42.072L203.156 42.552C201.428 42.864 200.036 43.008 200.036 44.616ZM211.963 32.4H214.555V35.28H217.939V37.392H214.555V44.328C214.555 45.36 215.059 45.888 216.019 45.888H217.915V48H215.779C213.307 48 211.963 46.728 211.963 44.328V37.392H210.043V35.28H211.963V32.4ZM230.565 48H228.165L228.141 45.96C227.469 47.592 226.005 48.288 224.373 48.288C221.565 48.288 220.101 46.248 220.101 43.464V35.28H222.693V42.672C222.693 44.904 223.341 46.104 225.045 46.104C226.845 46.104 227.997 44.904 227.997 42.672V35.28H230.565V48ZM233.707 35.28H236.083L236.155 37.632C236.587 36.024 237.547 35.28 239.179 35.28H240.379V37.392H239.155C237.163 37.392 236.299 38.472 236.299 40.584V48H233.707V35.28ZM241.084 41.64C241.084 37.584 243.484 34.992 247.156 34.992C250.18 34.992 252.772 37.008 252.916 41.544V42.384H243.82C243.964 44.712 245.164 46.08 247.156 46.08C248.404 46.08 249.532 45.36 250.06 44.16L252.748 44.352C251.98 46.776 249.748 48.288 247.156 48.288C243.484 48.288 241.084 45.696 241.084 41.64ZM243.844 40.44H250.204C249.892 38.04 248.572 37.2 247.156 37.2C245.308 37.2 244.132 38.4 243.844 40.44ZM262.709 39.288C262.445 37.944 261.173 37.152 259.877 37.152C258.581 37.152 257.549 37.8 257.573 38.904C257.597 40.056 259.061 40.512 260.357 40.752C263.525 41.328 265.565 42.192 265.565 44.688C265.565 47.184 263.045 48.288 260.357 48.288C257.093 48.288 254.765 46.656 254.573 43.992L257.237 43.824C257.477 45.24 258.581 46.128 260.333 46.128C261.437 46.128 262.877 45.744 262.877 44.568C262.877 43.2 261.269 43.056 259.901 42.744C257.213 42.168 254.885 41.448 254.885 39C254.885 36.504 256.901 34.992 260.069 34.992C262.829 34.992 264.941 36.6 265.373 39.144L262.709 39.288Z" fill="white"/>
</g>
<g opacity="0.7" filter="url(#filter2_i_625_14667)">
<rect width="142" height="50" rx="16" transform="matrix(1 0 0 -1 303.469 64)" fill="#9A9AA5" fill-opacity="0.1"/>
</g>
<defs>
<filter id="filter0_i_625_14667" x="-54.5312" y="13" width="142" height="51" filterUnits="userSpaceOnUse" color-interpolation-filters="sRGB">
<feFlood flood-opacity="0" result="BackgroundImageFix"/>
<feBlend mode="normal" in="SourceGraphic" in2="BackgroundImageFix" result="shape"/>
<feColorMatrix in="SourceAlpha" type="matrix" values="0 0 0 0 0 0 0 0 0 0 0 0 0 0 0 0 0 0 127 0" result="hardAlpha"/>
<feOffset dy="-1"/>
<feGaussianBlur stdDeviation="2"/>
<feComposite in2="hardAlpha" operator="arithmetic" k2="-1" k3="1"/>
<feColorMatrix type="matrix" values="0 0 0 0 0.603922 0 0 0 0 0.603922 0 0 0 0 0.647059 0 0 0 0.1 0"/>
<feBlend mode="normal" in2="shape" result="effect1_innerShadow_625_14667"/>
</filter>
<filter id="filter1_di_625_14667" x="76.5688" y="0.1" width="237.8" height="101.8" filterUnits="userSpaceOnUse" color-interpolation-filters="sRGB">
<feFlood flood-opacity="0" result="BackgroundImageFix"/>
<feColorMatrix in="SourceAlpha" type="matrix" values="0 0 0 0 0 0 0 0 0 0 0 0 0 0 0 0 0 0 127 0" result="hardAlpha"/>
<feOffset dy="11"/>
<feGaussianBlur stdDeviation="10.45"/>
<feColorMatrix type="matrix" values="0 0 0 0 0.0352941 0 0 0 0 0.0352941 0 0 0 0 0.0431373 0 0 0 0.1 0"/>
<feBlend mode="normal" in2="BackgroundImageFix" result="effect1_dropShadow_625_14667"/>
<feBlend mode="normal" in="SourceGraphic" in2="effect1_dropShadow_625_14667" result="shape"/>
<feColorMatrix in="SourceAlpha" type="matrix" values="0 0 0 0 0 0 0 0 0 0 0 0 0 0 0 0 0 0 127 0" result="hardAlpha"/>
<feOffset dy="-1"/>
<feGaussianBlur stdDeviation="2"/>
<feComposite in2="hardAlpha" operator="arithmetic" k2="-1" k3="1"/>
<feColorMatrix type="matrix" values="0 0 0 0 0.603922 0 0 0 0 0.603922 0 0 0 0 0.647059 0 0 0 0.1 0"/>
<feBlend mode="normal" in2="shape" result="effect2_innerShadow_625_14667"/>
</filter>
<filter id="filter2_i_625_14667" x="303.469" y="13" width="142" height="51" filterUnits="userSpaceOnUse" color-interpolation-filters="sRGB">
<feFlood flood-opacity="0" result="BackgroundImageFix"/>
<feBlend mode="normal" in="SourceGraphic" in2="BackgroundImageFix" result="shape"/>
<feColorMatrix in="SourceAlpha" type="matrix" values="0 0 0 0 0 0 0 0 0 0 0 0 0 0 0 0 0 0 127 0" result="hardAlpha"/>
<feOffset dy="-1"/>
<feGaussianBlur stdDeviation="2"/>
<feComposite in2="hardAlpha" operator="arithmetic" k2="-1" k3="1"/>
<feColorMatrix type="matrix" values="0 0 0 0 0.603922 0 0 0 0 0.603922 0 0 0 0 0.647059 0 0 0 0.1 0"/>
<feBlend mode="normal" in2="shape" result="effect1_innerShadow_625_14667"/>
</filter>
</defs>
</svg>
