<svg width="1412" height="661" viewBox="0 0 1412 661" fill="none" xmlns="http://www.w3.org/2000/svg">
<g clip-path="url(#clip0_625_5371)" filter="url(#filter0_ii_625_5371)">
<rect width="1412" height="661" fill="#002B87"/>
<g filter="url(#filter1_f_625_5371)">
<g filter="url(#filter2_f_625_5371)">
<ellipse cx="705.997" cy="260.809" rx="250.146" ry="120.799" fill="#11019F"/>
</g>
<g filter="url(#filter3_f_625_5371)">
<g filter="url(#filter4_f_625_5371)">
<g filter="url(#filter5_f_625_5371)">
<path d="M1220.04 82.8991C1220.04 162.94 1379.41 734.188 698.289 734.188C35.1696 734.188 191.953 162.94 191.953 82.8991C208.448 14.1612 314.253 569.596 689.908 569.596C1065.56 569.596 1220.04 2.85841 1220.04 82.8991Z" fill="url(#paint0_linear_625_5371)"/>
</g>
</g>
</g>
<g style="mix-blend-mode:plus-lighter" filter="url(#filter6_f_625_5371)">
<g filter="url(#filter7_f_625_5371)">
<g filter="url(#filter8_f_625_5371)">
<path d="M1054.93 234.842C1054.93 286.787 912.144 555.886 701.677 555.886C491.211 555.886 357.062 286.787 357.062 234.842C366.304 190.232 486.515 440.618 696.982 440.618C907.448 440.618 1054.93 182.896 1054.93 234.842Z" fill="url(#paint1_linear_625_5371)"/>
</g>
</g>
</g>
<g style="mix-blend-mode:soft-light" filter="url(#filter9_f_625_5371)">
<g filter="url(#filter10_f_625_5371)">
<g opacity="0.9" filter="url(#filter11_f_625_5371)">
<path d="M997.967 393.286C1253.96 235.175 1305.53 -133.367 698.433 -133.367C-151.559 -133.367 321.357 422.764 321.357 371.806C339.312 441.045 104.77 -41.6783 827.92 -41.6783C1319.75 -41.6783 997.967 473.91 997.967 393.286Z" fill="url(#paint2_linear_625_5371)"/>
</g>
</g>
</g>
<g filter="url(#filter12_f_625_5371)">
<g filter="url(#filter13_f_625_5371)">
<ellipse cx="705.997" cy="738.126" rx="1101.29" ry="335.841" fill="#0052FF"/>
</g>
</g>
<g opacity="0.4" filter="url(#filter14_f_625_5371)">
<g filter="url(#filter15_f_625_5371)">
<g filter="url(#filter16_f_625_5371)">
<path d="M1453.99 86.4241C1453.99 202.894 1685.89 1034.14 694.77 1034.14C-270.157 1034.14 -42.0156 202.894 -42.0156 86.4241C-18.0142 -13.5988 135.946 794.633 682.575 794.633C1229.2 794.633 1453.99 -30.0459 1453.99 86.4241Z" fill="url(#paint3_linear_625_5371)"/>
</g>
</g>
</g>
<g filter="url(#filter17_f_625_5371)">
<ellipse cx="705.997" cy="853.554" rx="828.103" ry="220.413" fill="#00D0FF"/>
</g>
</g>
<g filter="url(#filter18_f_625_5371)">
<g opacity="0.4">
<mask id="mask0_625_5371" style="mask-type:alpha" maskUnits="userSpaceOnUse" x="-14" y="-72" width="1440" height="733">
<rect x="-14" y="-72" width="1440" height="732.636" fill="url(#paint4_radial_625_5371)"/>
</mask>
<g mask="url(#mask0_625_5371)">
<g opacity="0.6">
<path d="M1390.26 159.406L1412.07 181.753L1390.26 159.406Z" stroke="white" stroke-miterlimit="10"/>
<path d="M243.93 178.704L223.945 154.797L243.93 178.704Z" stroke="white" stroke-miterlimit="10"/>
<path d="M1276.54 23.4844L1307.51 25.9008L1276.54 23.4844Z" stroke="white" stroke-miterlimit="10"/>
<path d="M34.3604 627.734L65.2383 627.734L34.3604 627.734Z" stroke="white" stroke-miterlimit="10"/>
<path d="M617.672 213.29L593.944 192.307L617.672 213.29Z" stroke="white" stroke-miterlimit="10"/>
<path d="M1245.84 43.0664L1276.74 44.8243L1245.84 43.0664Z" stroke="white" stroke-miterlimit="10"/>
<path d="M1199.38 533.143L1199.37 563.574L1199.38 533.143Z" stroke="white" stroke-miterlimit="10"/>
<path d="M510.684 90.7737L511.977 60.7109L510.684 90.7737Z" stroke="white" stroke-miterlimit="10"/>
<path d="M927.465 81.0557L896.554 83.5971L927.465 81.0557Z" stroke="white" stroke-miterlimit="10"/>
<path d="M786.816 501.508L786.816 531.241L786.816 501.508Z" stroke="white" stroke-miterlimit="10"/>
<path d="M689.59 328.404L692.047 298.381L689.59 328.404Z" stroke="white" stroke-miterlimit="10"/>
<path d="M627.23 110.257L626.213 139.635L627.23 110.257Z" stroke="white" stroke-miterlimit="10"/>
<path d="M69.5435 446.998L100.77 447.446L69.5435 446.998Z" stroke="white" stroke-miterlimit="10"/>
<path d="M586.867 413.222L612.309 394.668L586.867 413.222Z" stroke="white" stroke-miterlimit="10"/>
<path d="M769.672 498.703L767.697 468.824L769.672 498.703Z" stroke="white" stroke-miterlimit="10"/>
<path d="M597.656 290.324L567.254 296.645L597.656 290.324Z" stroke="white" stroke-miterlimit="10"/>
<path d="M790.192 459.475L797.543 489.735L790.192 459.475Z" stroke="white" stroke-miterlimit="10"/>
<path d="M797.036 565.9L803.316 535.916L797.036 565.9Z" stroke="white" stroke-miterlimit="10"/>
<path d="M135.965 200.221L104.859 196.547L135.965 200.221Z" stroke="white" stroke-miterlimit="10"/>
<path d="M848.121 557.826L844.887 589.561L848.121 557.826Z" stroke="white" stroke-miterlimit="10"/>
<path d="M839.56 68.5654L869.105 69.632L839.56 68.5654Z" stroke="white" stroke-miterlimit="10"/>
<path d="M873.191 630.594L857.873 658.095L873.191 630.594Z" stroke="white" stroke-miterlimit="10"/>
<path d="M866.824 616.92L872.254 586.613L866.824 616.92Z" stroke="white" stroke-miterlimit="10"/>
<path d="M875.059 21.2207L844.804 28.9965L875.059 21.2207Z" stroke="white" stroke-miterlimit="10"/>
<path d="M903.218 568.828L903.754 598.219L903.218 568.828Z" stroke="white" stroke-miterlimit="10"/>
<path d="M535.57 526.395L505.288 532.254L535.57 526.395Z" stroke="white" stroke-miterlimit="10"/>
<path d="M1056.13 663.83L1069.7 635.684L1056.13 663.83Z" stroke="white" stroke-miterlimit="10"/>
<path d="M45.3832 360.021L75.8125 367.6L45.3832 360.021Z" stroke="white" stroke-miterlimit="10"/>
<path d="M470.944 412.611L501.855 408.482L470.944 412.611Z" stroke="white" stroke-miterlimit="10"/>
<path d="M1145.49 442.513L1127.83 416.256L1145.49 442.513Z" stroke="white" stroke-miterlimit="10"/>
<path d="M1184.04 584.952L1187.05 555.436L1184.04 584.952Z" stroke="white" stroke-miterlimit="10"/>
<path d="M434.934 141.135L434.746 110.302L434.934 141.135Z" stroke="white" stroke-miterlimit="10"/>
<path d="M1220.43 564.648L1220.43 594.468L1220.43 564.648Z" stroke="white" stroke-miterlimit="10"/>
<path d="M400.875 136.684L393.229 106.904L400.875 136.684Z" stroke="white" stroke-miterlimit="10"/>
<path d="M762.534 145.561L793.398 151.381L762.534 145.561Z" stroke="white" stroke-miterlimit="10"/>
<path d="M1223.99 104.456L1253.91 102.619L1223.99 104.456Z" stroke="white" stroke-miterlimit="10"/>
<path d="M395.762 68.1973L385.639 39.3789L395.762 68.1973Z" stroke="white" stroke-miterlimit="10"/>
<path d="M1284.03 70.5872L1253.63 64.0098L1284.03 70.5872Z" stroke="white" stroke-miterlimit="10"/>
<path d="M352.801 279.692L330.821 257.543L352.801 279.692Z" stroke="white" stroke-miterlimit="10"/>
<path d="M1299.02 540.281L1294.1 510.008L1299.02 540.281Z" stroke="white" stroke-miterlimit="10"/>
<path d="M1300.52 156.247L1272.38 143.217L1300.52 156.247Z" stroke="white" stroke-miterlimit="10"/>
<path d="M1301.21 8.51855L1270.98 8.53866L1301.21 8.51855Z" stroke="white" stroke-miterlimit="10"/>
<path d="M1337.27 174.628L1310.15 158.523L1337.27 174.628Z" stroke="white" stroke-miterlimit="10"/>
<path d="M267.337 572.095L298.094 566.473L267.337 572.095Z" stroke="white" stroke-miterlimit="10"/>
<path d="M294.98 502.949L264.571 508.072L294.98 502.949Z" stroke="white" stroke-miterlimit="10"/>
<path d="M226.617 595.738L195.84 602.105L226.617 595.738Z" stroke="white" stroke-miterlimit="10"/>
<path d="M1330.99 68.1846L1360.59 76.9479L1330.99 68.1846Z" stroke="white" stroke-miterlimit="10"/>
<path d="M541.75 14.656L552.309 -13.9912L541.75 14.656Z" stroke="white" stroke-miterlimit="10"/>
<path d="M567.07 139.938L562.946 109.025L567.07 139.938Z" stroke="white" stroke-miterlimit="10"/>
<path d="M541.12 323.277L571.656 318.24L541.12 323.277Z" stroke="white" stroke-miterlimit="10"/>
<path d="M562.587 175.332L580.824 200.088L562.587 175.332Z" stroke="white" stroke-miterlimit="10"/>
<path d="M554.235 339.942L584.832 334.154L554.235 339.942Z" stroke="white" stroke-miterlimit="10"/>
<path d="M582.91 260.65L552.039 255.777L582.91 260.65Z" stroke="white" stroke-miterlimit="10"/>
<path d="M580.235 449.717L606.613 432.428L580.235 449.717Z" stroke="white" stroke-miterlimit="10"/>
<path d="M517.349 657.925L547.691 652.025L517.349 657.925Z" stroke="white" stroke-miterlimit="10"/>
<path d="M623.504 632.898L593.583 641.438L623.504 632.898Z" stroke="white" stroke-miterlimit="10"/>
<path d="M537.805 223.508L517.07 200.437L537.805 223.508Z" stroke="white" stroke-miterlimit="10"/>
<path d="M525.582 477.43L494.892 481.301L525.582 477.43Z" stroke="white" stroke-miterlimit="10"/>
<path d="M1414.13 260.137L1394.36 233.604L1414.13 260.137Z" stroke="white" stroke-miterlimit="10"/>
<path d="M657.944 544.35L678.652 520.707L657.944 544.35Z" stroke="white" stroke-miterlimit="10"/>
<path d="M440.226 480.648L470.508 488.227L440.226 480.648Z" stroke="white" stroke-miterlimit="10"/>
<path d="M725.082 397.434L720.462 367.615L725.082 397.434Z" stroke="white" stroke-miterlimit="10"/>
<path d="M701.361 5.64894L730.98 -4.72754L701.361 5.64894Z" stroke="white" stroke-miterlimit="10"/>
<path d="M460.418 13.3447L449.826 41.8405L460.418 13.3447Z" stroke="white" stroke-miterlimit="10"/>
<path d="M422.872 465.236L453.141 471.248L422.872 465.236Z" stroke="white" stroke-miterlimit="10"/>
<path d="M439.48 510.316L409.239 502.811L439.48 510.316Z" stroke="white" stroke-miterlimit="10"/>
<path d="M748.252 436.049L754.773 465.578L748.252 436.049Z" stroke="white" stroke-miterlimit="10"/>
<path d="M407.32 551.5L437.742 553.811L407.32 551.5Z" stroke="white" stroke-miterlimit="10"/>
<path d="M760.484 165.734L729.848 171.581L760.484 165.734Z" stroke="white" stroke-miterlimit="10"/>
<path d="M769.34 44.5283L738.656 49.0582L769.34 44.5283Z" stroke="white" stroke-miterlimit="10"/>
<path d="M773.262 624.471L752.46 648.18L773.262 624.471Z" stroke="white" stroke-miterlimit="10"/>
<path d="M777.121 418.707L766.208 389.414L777.121 418.707Z" stroke="white" stroke-miterlimit="10"/>
<path d="M430.371 161.145L424.205 131.365L430.371 161.145Z" stroke="white" stroke-miterlimit="10"/>
<path d="M414.816 98.3255L411.563 66.3994L414.816 98.3255Z" stroke="white" stroke-miterlimit="10"/>
<path d="M812.164 23.2207L781.44 29.1924L812.164 23.2207Z" stroke="white" stroke-miterlimit="10"/>
<path d="M386.235 417.133L414.77 430.782L386.235 417.133Z" stroke="white" stroke-miterlimit="10"/>
<path d="M820.254 610.959L808.183 639.178L820.254 610.959Z" stroke="white" stroke-miterlimit="10"/>
<path d="M835.102 38.7334L804.338 41.0378L835.102 38.7334Z" stroke="white" stroke-miterlimit="10"/>
<path d="M851.619 511.865L856.5 542.139L851.619 511.865Z" stroke="white" stroke-miterlimit="10"/>
<path d="M366.078 425.179L339.512 408.402L366.078 425.179Z" stroke="white" stroke-miterlimit="10"/>
<path d="M881.059 569.296L879.003 539.24L881.059 569.296Z" stroke="white" stroke-miterlimit="10"/>
<path d="M895.446 528.434L899.637 558.852L895.446 528.434Z" stroke="white" stroke-miterlimit="10"/>
<path d="M910.757 517.559L917.727 547.266L910.757 517.559Z" stroke="white" stroke-miterlimit="10"/>
<path d="M905.123 473.064L916.062 502.35L905.123 473.064Z" stroke="white" stroke-miterlimit="10"/>
<path d="M321.963 454.285L350.719 466.025L321.963 454.285Z" stroke="white" stroke-miterlimit="10"/>
<path d="M899.64 166.471L928.141 180.33L899.64 166.471Z" stroke="white" stroke-miterlimit="10"/>
<path d="M1336.99 386.127L1351.18 413.846L1336.99 386.127Z" stroke="white" stroke-miterlimit="10"/>
<path d="M1343.08 493.197L1348.09 523.201L1343.08 493.197Z" stroke="white" stroke-miterlimit="10"/>
<path d="M958.332 562.449L949.729 533.229L958.332 562.449Z" stroke="white" stroke-miterlimit="10"/>
<path d="M994.035 140.497L965.193 128.869L994.035 140.497Z" stroke="white" stroke-miterlimit="10"/>
<path d="M1344.41 18.2234L1313.59 14.9512L1344.41 18.2234Z" stroke="white" stroke-miterlimit="10"/>
<path d="M1020.51 625.848L1011.03 655.061L1020.51 625.848Z" stroke="white" stroke-miterlimit="10"/>
<path d="M229.818 449.908L260.695 446.023L229.818 449.908Z" stroke="white" stroke-miterlimit="10"/>
<path d="M1028.22 444.199L1043.83 471.563L1028.22 444.199Z" stroke="white" stroke-miterlimit="10"/>
<path d="M1056.68 88.5479L1026.36 95.2636L1056.68 88.5479Z" stroke="white" stroke-miterlimit="10"/>
<path d="M246.57 417.047L215.753 418.936L246.57 417.047Z" stroke="white" stroke-miterlimit="10"/>
<path d="M1095.16 680.436L1105.54 652.164L1095.16 680.436Z" stroke="white" stroke-miterlimit="10"/>
<path d="M187.23 132.957L216.648 144.157L187.23 132.957Z" stroke="white" stroke-miterlimit="10"/>
<path d="M1147.58 512.634L1137.39 483.684L1147.58 512.634Z" stroke="white" stroke-miterlimit="10"/>
<path d="M1117.49 320.748L1146.66 332.902L1117.49 320.748Z" stroke="white" stroke-miterlimit="10"/>
<path d="M1151.64 605.396L1142.43 634.735L1151.64 605.396Z" stroke="white" stroke-miterlimit="10"/>
<path d="M1320.86 71.3446L1290.31 65.6494L1320.86 71.3446Z" stroke="white" stroke-miterlimit="10"/>
<path d="M208.844 424.77L177.792 422.564L208.844 424.77Z" stroke="white" stroke-miterlimit="10"/>
<path d="M206.238 211.46L176.833 202.045L206.238 211.46Z" stroke="white" stroke-miterlimit="10"/>
<path d="M1309.25 624.621L1320.54 654.151L1309.25 624.621Z" stroke="white" stroke-miterlimit="10"/>
<path d="M1165.84 546.002L1165.46 515.676L1165.84 546.002Z" stroke="white" stroke-miterlimit="10"/>
<path d="M139.746 233.148L168.91 244.144L139.746 233.148Z" stroke="white" stroke-miterlimit="10"/>
<path d="M9.5293 366.6L38.5859 376.673L9.5293 366.6Z" stroke="white" stroke-miterlimit="10"/>
<path d="M1216.1 500.803L1222.31 530.938L1216.1 500.803Z" stroke="white" stroke-miterlimit="10"/>
<path d="M125.859 578.408L96.2202 587.336L125.859 578.408Z" stroke="white" stroke-miterlimit="10"/>
<path d="M1259.84 498.465L1262.02 528.58L1259.84 498.465Z" stroke="white" stroke-miterlimit="10"/>
<path d="M68.4458 277.912L98.5 283.68L68.4458 277.912Z" stroke="white" stroke-miterlimit="10"/>
<path d="M1235.23 15.3407L1267.55 11.9434L1235.23 15.3407Z" stroke="white" stroke-miterlimit="10"/>
<path d="M75.5352 570.258L45.3337 573.056L75.5352 570.258Z" stroke="white" stroke-miterlimit="10"/>
<path d="M1266.86 479.088L1273.6 508.887L1266.86 479.088Z" stroke="white" stroke-miterlimit="10"/>
<path d="M1288.7 631.436L1283.31 601.051L1288.7 631.436Z" stroke="white" stroke-miterlimit="10"/>
<path d="M1258.22 80.6025L1288.76 87.022L1258.22 80.6025Z" stroke="white" stroke-miterlimit="10"/>
<path d="M66.3308 240.691L96.4922 245.333L66.3308 240.691Z" stroke="white" stroke-miterlimit="10"/>
<path d="M1286.1 530.793L1285.68 561.718L1286.1 530.793Z" stroke="white" stroke-miterlimit="10"/>
<path d="M548.392 129.064L556.566 158.594L548.392 129.064Z" stroke="white" stroke-miterlimit="10"/>
<path d="M555.612 96.3302L561.598 66.4912L555.612 96.3302Z" stroke="white" stroke-miterlimit="10"/>
<path d="M567.641 619.842L537.024 626.301L567.641 619.842Z" stroke="white" stroke-miterlimit="10"/>
<path d="M93.4727 600.098L63.2243 603.706L93.4727 600.098Z" stroke="white" stroke-miterlimit="10"/>
<path d="M724.613 479.523L716.981 508.796L724.613 479.523Z" stroke="white" stroke-miterlimit="10"/>
<path d="M570.609 20.041L554.675 46.4694L570.609 20.041Z" stroke="white" stroke-miterlimit="10"/>
<path d="M577.969 -25.3818L561.907 0.901709L577.969 -25.3818Z" stroke="white" stroke-miterlimit="10"/>
<path d="M98.332 532.168L67.7355 536.52L98.332 532.168Z" stroke="white" stroke-miterlimit="10"/>
<path d="M1298.64 134.532L1268.33 126.111L1298.64 134.532Z" stroke="white" stroke-miterlimit="10"/>
<path d="M554.247 197.508L577.473 219.327L554.247 197.508Z" stroke="white" stroke-miterlimit="10"/>
<path d="M39.6165 328.867L69.5234 334.832L39.6165 328.867Z" stroke="white" stroke-miterlimit="10"/>
<path d="M588.422 627L557.571 630.95L588.422 627Z" stroke="white" stroke-miterlimit="10"/>
<path d="M96.1562 18.5141L79.4721 -8.09863L96.1562 18.5141Z" stroke="white" stroke-miterlimit="10"/>
<path d="M519.413 580.793L548.711 571.793L519.413 580.793Z" stroke="white" stroke-miterlimit="10"/>
<path d="M609.609 79.0732L601.689 108.418L609.609 79.0732Z" stroke="white" stroke-miterlimit="10"/>
<path d="M544.73 34.4004L535.398 63.4953L544.73 34.4004Z" stroke="white" stroke-miterlimit="10"/>
<path d="M1258.83 127.013L1226.42 127.006L1258.83 127.013Z" stroke="white" stroke-miterlimit="10"/>
<path d="M545.031 344.412L514.615 350.739L545.031 344.412Z" stroke="white" stroke-miterlimit="10"/>
<path d="M103.836 134.077L74.5985 123.424L103.836 134.077Z" stroke="white" stroke-miterlimit="10"/>
<path d="M609.235 121.094L610.199 151.69L609.235 121.094Z" stroke="white" stroke-miterlimit="10"/>
<path d="M585.086 320.973L613.988 309.062L585.086 320.973Z" stroke="white" stroke-miterlimit="10"/>
<path d="M1253.1 681.627L1243.83 651.867L1253.1 681.627Z" stroke="white" stroke-miterlimit="10"/>
<path d="M1217.47 81.2196L1247.91 78L1217.47 81.2196Z" stroke="white" stroke-miterlimit="10"/>
<path d="M619.23 253.572L589.022 250.437L619.23 253.572Z" stroke="white" stroke-miterlimit="10"/>
<path d="M133.449 516.453L103.857 526.053L133.449 516.453Z" stroke="white" stroke-miterlimit="10"/>
<path d="M1208.83 55.859L1238.89 48.0635L1208.83 55.859Z" stroke="white" stroke-miterlimit="10"/>
<path d="M631.527 555.541L604.807 571.547L631.527 555.541Z" stroke="white" stroke-miterlimit="10"/>
<path d="M603.643 284.471L633.73 276.451L603.643 284.471Z" stroke="white" stroke-miterlimit="10"/>
<path d="M107.083 289.626L138.008 286.229L107.083 289.626Z" stroke="white" stroke-miterlimit="10"/>
<path d="M123.772 377.866L154.234 372.236L123.772 377.866Z" stroke="white" stroke-miterlimit="10"/>
<path d="M636.266 179.541L628.667 150.334L636.266 179.541Z" stroke="white" stroke-miterlimit="10"/>
<path d="M161.453 398.156L130.354 401.725L161.453 398.156Z" stroke="white" stroke-miterlimit="10"/>
<path d="M515.66 9.96777L507.485 39.1417L515.66 9.96777Z" stroke="white" stroke-miterlimit="10"/>
<path d="M646.621 635.1L617.491 645.93L646.621 635.1Z" stroke="white" stroke-miterlimit="10"/>
<path d="M1207.03 676.012L1204.06 646.094L1207.03 676.012Z" stroke="white" stroke-miterlimit="10"/>
<path d="M652.293 443.496L633.165 468.167L652.293 443.496Z" stroke="white" stroke-miterlimit="10"/>
<path d="M484.332 180.463L500.762 207.082L484.332 180.463Z" stroke="white" stroke-miterlimit="10"/>
<path d="M144.79 172.596L171.57 188.964L144.79 172.596Z" stroke="white" stroke-miterlimit="10"/>
<path d="M636.247 541.71L658.676 519.838L636.247 541.71Z" stroke="white" stroke-miterlimit="10"/>
<path d="M647.35 579.152L670.508 558.254L647.35 579.152Z" stroke="white" stroke-miterlimit="10"/>
<path d="M178.402 526.578L148.234 532.563L178.402 526.578Z" stroke="white" stroke-miterlimit="10"/>
<path d="M1409.12 474.888L1398.04 445.846L1409.12 474.888Z" stroke="white" stroke-miterlimit="10"/>
<path d="M667.58 400.534L678.031 371.939L667.58 400.534Z" stroke="white" stroke-miterlimit="10"/>
<path d="M668.589 327.254L679.094 298.225L668.589 327.254Z" stroke="white" stroke-miterlimit="10"/>
<path d="M496.316 111.309L493.437 80.9043L496.316 111.309Z" stroke="white" stroke-miterlimit="10"/>
<path d="M481.447 10.9031L492.414 -17.1318L481.447 10.9031Z" stroke="white" stroke-miterlimit="10"/>
<path d="M193.328 383.586L163.019 379.643L193.328 383.586Z" stroke="white" stroke-miterlimit="10"/>
<path d="M687.879 596.58L664.044 617.024L687.879 596.58Z" stroke="white" stroke-miterlimit="10"/>
<path d="M681.763 546.503L697.148 519.891L681.763 546.503Z" stroke="white" stroke-miterlimit="10"/>
<path d="M1322.4 489.314L1317.02 459.422L1322.4 489.314Z" stroke="white" stroke-miterlimit="10"/>
<path d="M698.851 437.628L701.938 407.697L698.851 437.628Z" stroke="white" stroke-miterlimit="10"/>
<path d="M1150.91 566.813L1152.37 536.52L1150.91 566.813Z" stroke="white" stroke-miterlimit="10"/>
<path d="M677.377 5.4832L705.289 -8.40918L677.377 5.4832Z" stroke="white" stroke-miterlimit="10"/>
<path d="M480.844 43.4736L473.713 73.4179L480.844 43.4736Z" stroke="white" stroke-miterlimit="10"/>
<path d="M696.396 510.486L705.555 481.438L696.396 510.486Z" stroke="white" stroke-miterlimit="10"/>
<path d="M706.769 332.916L713.035 362.788L706.769 332.916Z" stroke="white" stroke-miterlimit="10"/>
<path d="M1325.09 91.9331L1295.52 82.5508L1325.09 91.9331Z" stroke="white" stroke-miterlimit="10"/>
<path d="M720.895 66.0889L692.119 79.6915L720.895 66.0889Z" stroke="white" stroke-miterlimit="10"/>
<path d="M1133.84 623.318L1126.57 652.848L1133.84 623.318Z" stroke="white" stroke-miterlimit="10"/>
<path d="M718.482 580.824L734.852 553.975L718.482 580.824Z" stroke="white" stroke-miterlimit="10"/>
<path d="M1110.43 451.395L1126.37 478.218L1110.43 451.395Z" stroke="white" stroke-miterlimit="10"/>
<path d="M739.707 393.18L732.53 364.025L739.707 393.18Z" stroke="white" stroke-miterlimit="10"/>
<path d="M1371.45 63.1797L1398.17 80.6209L1371.45 63.1797Z" stroke="white" stroke-miterlimit="10"/>
<path d="M421.7 328.381L450.309 340.212L421.7 328.381Z" stroke="white" stroke-miterlimit="10"/>
<path d="M741.404 542.216L749.277 512.977L741.404 542.216Z" stroke="white" stroke-miterlimit="10"/>
<path d="M742.016 578.5L753.109 549.945L742.016 578.5Z" stroke="white" stroke-miterlimit="10"/>
<path d="M25.418 465.189L-4.86392 459.547L25.418 465.189Z" stroke="white" stroke-miterlimit="10"/>
<path d="M753.863 588.086L740.848 615.574L753.863 588.086Z" stroke="white" stroke-miterlimit="10"/>
<path d="M1389.2 38.706L1360.06 29.0537L1389.2 38.706Z" stroke="white" stroke-miterlimit="10"/>
<path d="M438.664 637.613L408.409 645.837L438.664 637.613Z" stroke="white" stroke-miterlimit="10"/>
<path d="M1354.33 7.88574L1382.94 20.4415L1354.33 7.88574Z" stroke="white" stroke-miterlimit="10"/>
<path d="M747.826 13.688L778.617 8.69727L747.826 13.688Z" stroke="white" stroke-miterlimit="10"/>
<path d="M1075.23 439.209L1090.14 466.572L1075.23 439.209Z" stroke="white" stroke-miterlimit="10"/>
<path d="M1381.45 629.699L1366.26 601.947L1381.45 629.699Z" stroke="white" stroke-miterlimit="10"/>
<path d="M785.832 226.378L756.829 208.746L785.832 226.378Z" stroke="white" stroke-miterlimit="10"/>
<path d="M784.266 541.703L779.151 570.982L784.266 541.703Z" stroke="white" stroke-miterlimit="10"/>
<path d="M412.053 167.912L424.754 195.552L412.053 167.912Z" stroke="white" stroke-miterlimit="10"/>
<path d="M789.097 419.205L798.148 448.629L789.097 419.205Z" stroke="white" stroke-miterlimit="10"/>
<path d="M1055.1 472.273L1067.73 500.433L1055.1 472.273Z" stroke="white" stroke-miterlimit="10"/>
<path d="M1068.27 558.4L1059.84 528.291L1068.27 558.4Z" stroke="white" stroke-miterlimit="10"/>
<path d="M1325.84 436.693L1332.22 468.87L1325.84 436.693Z" stroke="white" stroke-miterlimit="10"/>
<path d="M1349.05 154.27L1374.5 172.58L1349.05 154.27Z" stroke="white" stroke-miterlimit="10"/>
<path d="M409.82 531.564L379.632 526.23L409.82 531.564Z" stroke="white" stroke-miterlimit="10"/>
<path d="M1048.92 543.73L1051.67 573.932L1048.92 543.73Z" stroke="white" stroke-miterlimit="10"/>
<path d="M1054.29 649.857L1039.87 677.313L1054.29 649.857Z" stroke="white" stroke-miterlimit="10"/>
<path d="M823.379 649.686L805.074 675.067L823.379 649.686Z" stroke="white" stroke-miterlimit="10"/>
<path d="M1044.93 399.224L1016.73 385.529L1044.93 399.224Z" stroke="white" stroke-miterlimit="10"/>
<path d="M1337.57 449.69L1330.74 419.752L1337.57 449.69Z" stroke="white" stroke-miterlimit="10"/>
<path d="M375.472 465.459L404.488 476.31L375.472 465.459Z" stroke="white" stroke-miterlimit="10"/>
<path d="M1307.11 -4.87988L1337.49 1.27619L1307.11 -4.87988Z" stroke="white" stroke-miterlimit="10"/>
<path d="M373.937 569.209L404.199 576.544L373.937 569.209Z" stroke="white" stroke-miterlimit="10"/>
<path d="M1027.34 549.116L1017.26 520.146L1027.34 549.116Z" stroke="white" stroke-miterlimit="10"/>
<path d="M238.61 534.084L268.57 531.135L238.61 534.084Z" stroke="white" stroke-miterlimit="10"/>
<path d="M240.912 370.109L267.391 386.853L240.912 370.109Z" stroke="white" stroke-miterlimit="10"/>
<path d="M255.56 231.008L277.078 253.163L255.56 231.008Z" stroke="white" stroke-miterlimit="10"/>
<path d="M1002.84 535.361L1010.67 564.93L1002.84 535.361Z" stroke="white" stroke-miterlimit="10"/>
<path d="M280.781 416.329L253.044 401.752L280.781 416.329Z" stroke="white" stroke-miterlimit="10"/>
<path d="M980.914 445.957L997.672 472.372L980.914 445.957Z" stroke="white" stroke-miterlimit="10"/>
<path d="M838.904 244.168L851.531 272.256L838.904 244.168Z" stroke="white" stroke-miterlimit="10"/>
<path d="M992.625 649.096L978.318 676.578L992.625 649.096Z" stroke="white" stroke-miterlimit="10"/>
<path d="M354.734 499.053L384.434 506.98L354.734 499.053Z" stroke="white" stroke-miterlimit="10"/>
<path d="M377.41 553.462L345.669 547.918L377.41 553.462Z" stroke="white" stroke-miterlimit="10"/>
<path d="M965.59 326.91L982.562 352.865L965.59 326.91Z" stroke="white" stroke-miterlimit="10"/>
<path d="M375.434 365.244L351.659 344.465L375.434 365.244Z" stroke="white" stroke-miterlimit="10"/>
<path d="M878.241 495.318L885.914 524.499L878.241 495.318Z" stroke="white" stroke-miterlimit="10"/>
<path d="M347.31 33.4863L354.668 63.773L347.31 33.4863Z" stroke="white" stroke-miterlimit="10"/>
<path d="M893.637 231.759L874.87 206.607L893.637 231.759Z" stroke="white" stroke-miterlimit="10"/>
<path d="M887.016 439.273L906.398 463.095L887.016 439.273Z" stroke="white" stroke-miterlimit="10"/>
<path d="M320.609 484.566L290.656 476.158L320.609 484.566Z" stroke="white" stroke-miterlimit="10"/>
<path d="M912.637 609.262L903.284 638.376L912.637 609.262Z" stroke="white" stroke-miterlimit="10"/>
<path d="M939.746 529.895L932.368 500.129L939.746 529.895Z" stroke="white" stroke-miterlimit="10"/>
<path d="M301.485 304.902L324.59 325.945L301.485 304.902Z" stroke="white" stroke-miterlimit="10"/>
<path d="M932.555 223.699L907.796 204.553L932.555 223.699Z" stroke="white" stroke-miterlimit="10"/>
<path d="M310.776 116.189L322.754 144.646L310.776 116.189Z" stroke="white" stroke-miterlimit="10"/>
<path d="M922.637 447.051L902.411 423.328L922.637 447.051Z" stroke="white" stroke-miterlimit="10"/>
<path d="M921.076 556.227L923.828 586.566L921.076 556.227Z" stroke="white" stroke-miterlimit="10"/>
<path d="M321.052 369.59L345.777 388.954L321.052 369.59Z" stroke="white" stroke-miterlimit="10"/>
<path d="M933.648 487.984L919.04 460.641L933.648 487.984Z" stroke="white" stroke-miterlimit="10"/>
<path d="M881.184 121.443L910.113 131.563L881.184 121.443Z" stroke="white" stroke-miterlimit="10"/>
<path d="M896.036 482.064L908.844 511.456L896.036 482.064Z" stroke="white" stroke-miterlimit="10"/>
<path d="M300.659 155.588L315.656 182.793L300.659 155.588Z" stroke="white" stroke-miterlimit="10"/>
<path d="M954.535 57.9713L924.521 52.6777L954.535 57.9713Z" stroke="white" stroke-miterlimit="10"/>
<path d="M55.818 659.281L86.2539 656.232L55.818 659.281Z" stroke="white" stroke-miterlimit="10"/>
<path d="M342.545 139.771L355.687 168.287L342.545 139.771Z" stroke="white" stroke-miterlimit="10"/>
<path d="M315.516 530.246L285.803 537.653L315.516 530.246Z" stroke="white" stroke-miterlimit="10"/>
<path d="M861.36 158.84L886.5 178.197L861.36 158.84Z" stroke="white" stroke-miterlimit="10"/>
<path d="M359.91 320.774L339.055 297.809L359.91 320.774Z" stroke="white" stroke-miterlimit="10"/>
<path d="M863.163 457.043L882.98 485.282L863.163 457.043Z" stroke="white" stroke-miterlimit="10"/>
<path d="M1330.24 657.852L1345.39 684.833L1330.24 657.852Z" stroke="white" stroke-miterlimit="10"/>
<path d="M860.636 297.861L870.859 325.692L860.636 297.861Z" stroke="white" stroke-miterlimit="10"/>
<path d="M852.109 420.951L869.824 446.596L852.109 420.951Z" stroke="white" stroke-miterlimit="10"/>
<path d="M871.598 533.552L864.909 503.963L871.598 533.552Z" stroke="white" stroke-miterlimit="10"/>
<path d="M977.867 438.24L955.198 417.23L977.867 438.24Z" stroke="white" stroke-miterlimit="10"/>
<path d="M978.942 633.865L986.34 604.639L978.942 633.865Z" stroke="white" stroke-miterlimit="10"/>
<path d="M826.852 104.481L856.672 113.429L826.852 104.481Z" stroke="white" stroke-miterlimit="10"/>
<path d="M989.164 535.527L978.177 506.979L989.164 535.527Z" stroke="white" stroke-miterlimit="10"/>
<path d="M987.332 484.46L972.295 457.143L987.332 484.46Z" stroke="white" stroke-miterlimit="10"/>
<path d="M387.012 200.687L373.996 172.633L387.012 200.687Z" stroke="white" stroke-miterlimit="10"/>
<path d="M847.428 471.504L853.219 501.165L847.428 471.504Z" stroke="white" stroke-miterlimit="10"/>
<path d="M846.876 624.885L853.926 595.316L846.876 624.885Z" stroke="white" stroke-miterlimit="10"/>
<path d="M-16.0994 423.545L13.7539 430.722L-16.0994 423.545Z" stroke="white" stroke-miterlimit="10"/>
<path d="M283.52 601.373L256.297 615.812L283.52 601.373Z" stroke="white" stroke-miterlimit="10"/>
<path d="M387.44 -21.6826L392.629 7.74812L387.44 -21.6826Z" stroke="white" stroke-miterlimit="10"/>
<path d="M834.301 478.859L841.887 508.527L834.301 478.859Z" stroke="white" stroke-miterlimit="10"/>
<path d="M828.299 345.029L834.961 374.315L828.299 345.029Z" stroke="white" stroke-miterlimit="10"/>
<path d="M254.477 38.041L269.059 65.7072L254.477 38.041Z" stroke="white" stroke-miterlimit="10"/>
<path d="M1006.32 405.781L1029.88 426.672L1006.32 405.781Z" stroke="white" stroke-miterlimit="10"/>
<path d="M828.227 567.314L819.951 595.573L828.227 567.314Z" stroke="white" stroke-miterlimit="10"/>
<path d="M1031.33 504.199L1042.74 532.017L1031.33 504.199Z" stroke="white" stroke-miterlimit="10"/>
<path d="M380.452 316.699L405.84 334.035L380.452 316.699Z" stroke="white" stroke-miterlimit="10"/>
<path d="M806.206 408.822L820.5 436.469L806.206 408.822Z" stroke="white" stroke-miterlimit="10"/>
<path d="M23.6094 557.859L-6.55875 551.473L23.6094 557.859Z" stroke="white" stroke-miterlimit="10"/>
<path d="M-1.33685 171.264L21.6875 191.417L-1.33685 171.264Z" stroke="white" stroke-miterlimit="10"/>
<path d="M1332.21 637.796L1317.91 610.439L1332.21 637.796Z" stroke="white" stroke-miterlimit="10"/>
<path d="M787.906 177.525L815.102 192.774L787.906 177.525Z" stroke="white" stroke-miterlimit="10"/>
<path d="M809.621 483.164L803.99 453.318L809.621 483.164Z" stroke="white" stroke-miterlimit="10"/>
<path d="M805.777 573.781L799.444 603.344L805.777 573.781Z" stroke="white" stroke-miterlimit="10"/>
<path d="M1046.67 411.246L1067.6 434.718L1046.67 411.246Z" stroke="white" stroke-miterlimit="10"/>
<path d="M420.387 495.668L391.846 483.316L420.387 495.668Z" stroke="white" stroke-miterlimit="10"/>
<path d="M408.71 191.24L420.922 219.802L408.71 191.24Z" stroke="white" stroke-miterlimit="10"/>
<path d="M1375.55 213.395L1353.59 191.674L1375.55 213.395Z" stroke="white" stroke-miterlimit="10"/>
<path d="M1046.95 163.694L1077.36 160.639L1046.95 163.694Z" stroke="white" stroke-miterlimit="10"/>
<path d="M1065.35 456.023L1083.44 483.202L1065.35 456.023Z" stroke="white" stroke-miterlimit="10"/>
<path d="M1085.56 621.371L1072.66 649.702L1085.56 621.371Z" stroke="white" stroke-miterlimit="10"/>
<path d="M1059.11 382.828L1085.79 399.571L1059.11 382.828Z" stroke="white" stroke-miterlimit="10"/>
<path d="M1381.19 438.794L1371.29 409.699L1381.19 438.794Z" stroke="white" stroke-miterlimit="10"/>
<path d="M214.821 249.516L239.961 267.964L214.821 249.516Z" stroke="white" stroke-miterlimit="10"/>
<path d="M1094 527.467L1081.24 499.479L1094 527.467Z" stroke="white" stroke-miterlimit="10"/>
<path d="M760.559 538.346L766.766 508.553L760.559 538.346Z" stroke="white" stroke-miterlimit="10"/>
<path d="M1329.23 110.625L1299.64 103.066L1329.23 110.625Z" stroke="white" stroke-miterlimit="10"/>
<path d="M1104.86 569.909L1101.18 539.951L1104.86 569.909Z" stroke="white" stroke-miterlimit="10"/>
<path d="M193.623 104.923L222.445 117.123L193.623 104.923Z" stroke="white" stroke-miterlimit="10"/>
<path d="M719.07 124.945L746.219 110.69L719.07 124.945Z" stroke="white" stroke-miterlimit="10"/>
<path d="M189.19 10.9619L211.137 32.6695L189.19 10.9619Z" stroke="white" stroke-miterlimit="10"/>
<path d="M744.5 476.785L736.881 505.873L744.5 476.785Z" stroke="white" stroke-miterlimit="10"/>
<path d="M182.765 517.824L211.453 506.65L182.765 517.824Z" stroke="white" stroke-miterlimit="10"/>
<path d="M710.618 160.124L740.23 149.432L710.618 160.124Z" stroke="white" stroke-miterlimit="10"/>
<path d="M1117.99 607.766L1121.12 578.072L1117.99 607.766Z" stroke="white" stroke-miterlimit="10"/>
<path d="M1399.48 597.574L1382.71 571.561L1399.48 597.574Z" stroke="white" stroke-miterlimit="10"/>
<path d="M1134.79 531.937L1126.16 502.908L1134.79 531.937Z" stroke="white" stroke-miterlimit="10"/>
<path d="M724.645 30.3584L696.184 42.3546L724.645 30.3584Z" stroke="white" stroke-miterlimit="10"/>
<path d="M1405.8 131.258L1382.65 110.492L1405.8 131.258Z" stroke="white" stroke-miterlimit="10"/>
<path d="M178.333 226.643L207.785 234.497L178.333 226.643Z" stroke="white" stroke-miterlimit="10"/>
<path d="M479.75 309.996L450.178 301.482L479.75 309.996Z" stroke="white" stroke-miterlimit="10"/>
<path d="M178.896 258.176L208.883 264.174L178.896 258.176Z" stroke="white" stroke-miterlimit="10"/>
<path d="M711.986 436.095L716.586 407L711.986 436.095Z" stroke="white" stroke-miterlimit="10"/>
<path d="M708.634 472.979L716.836 444.088L708.634 472.979Z" stroke="white" stroke-miterlimit="10"/>
<path d="M687.643 617.309L709.637 595.318L687.643 617.309Z" stroke="white" stroke-miterlimit="10"/>
<path d="M2.36144 339.381L32.1211 347.466L2.36144 339.381Z" stroke="white" stroke-miterlimit="10"/>
<path d="M1146.99 681.936L1152.76 652.051L1146.99 681.936Z" stroke="white" stroke-miterlimit="10"/>
<path d="M458.047 322.264L488.195 328.657L458.047 322.264Z" stroke="white" stroke-miterlimit="10"/>
<path d="M678.113 120.455L700.32 98.207L678.113 120.455Z" stroke="white" stroke-miterlimit="10"/>
<path d="M689.851 473.728L700.289 445.127L689.851 473.728Z" stroke="white" stroke-miterlimit="10"/>
<path d="M696.871 634.123L673.311 653.908L696.871 634.123Z" stroke="white" stroke-miterlimit="10"/>
<path d="M692.84 372.145L685.12 401.648L692.84 372.145Z" stroke="white" stroke-miterlimit="10"/>
<path d="M201.184 561.469L171.022 569.073L201.184 561.469Z" stroke="white" stroke-miterlimit="10"/>
<path d="M492.004 547.76L462.03 545.963L492.004 547.76Z" stroke="white" stroke-miterlimit="10"/>
<path d="M681.168 335.268L676.836 364.823L681.168 335.268Z" stroke="white" stroke-miterlimit="10"/>
<path d="M681.172 408.91L671.518 437.985L681.172 408.91Z" stroke="white" stroke-miterlimit="10"/>
<path d="M1180.71 451.91L1167.58 424.072L1180.71 451.91Z" stroke="white" stroke-miterlimit="10"/>
<path d="M664.474 161.204L678.312 134.117L664.474 161.204Z" stroke="white" stroke-miterlimit="10"/>
<path d="M18.4025 58.2686L35.957 83.8345L18.4025 58.2686Z" stroke="white" stroke-miterlimit="10"/>
<path d="M490.878 55.7465L496.609 25.7627L490.878 55.7465Z" stroke="white" stroke-miterlimit="10"/>
<path d="M1314 590.101L1309.35 559.729L1314 590.101Z" stroke="white" stroke-miterlimit="10"/>
<path d="M650.636 322.172L667.086 295.855L650.636 322.172Z" stroke="white" stroke-miterlimit="10"/>
<path d="M652.483 434.726L667.594 408.152L652.483 434.726Z" stroke="white" stroke-miterlimit="10"/>
<path d="M151.706 5.36523L173.867 26.9214L151.706 5.36523Z" stroke="white" stroke-miterlimit="10"/>
<path d="M655.793 137.838L651.019 167.697L655.793 137.838Z" stroke="white" stroke-miterlimit="10"/>
<path d="M477.517 248.424L503.695 265.608L477.517 248.424Z" stroke="white" stroke-miterlimit="10"/>
<path d="M1186.9 471.709L1196.33 501.35L1186.9 471.709Z" stroke="white" stroke-miterlimit="10"/>
<path d="M146.846 144.275L173.566 159.373L146.846 144.275Z" stroke="white" stroke-miterlimit="10"/>
<path d="M656.293 331.586L638.437 356.796L656.293 331.586Z" stroke="white" stroke-miterlimit="10"/>
<path d="M172.34 580.168L143.812 591.927L172.34 580.168Z" stroke="white" stroke-miterlimit="10"/>
<path d="M482.459 643.073L513.082 639.84L482.459 643.073Z" stroke="white" stroke-miterlimit="10"/>
<path d="M618.936 302.385L646.547 287.551L618.936 302.385Z" stroke="white" stroke-miterlimit="10"/>
<path d="M1219.13 114.102L1189.13 120.765L1219.13 114.102Z" stroke="white" stroke-miterlimit="10"/>
<path d="M516.379 422.775L486.318 428.872L516.379 422.775Z" stroke="white" stroke-miterlimit="10"/>
<path d="M515.832 297.927L485.972 291.863L515.832 297.927Z" stroke="white" stroke-miterlimit="10"/>
<path d="M163.656 632.682L136.086 647.226L163.656 632.682Z" stroke="white" stroke-miterlimit="10"/>
<path d="M525.777 561.902L495.616 568.723L525.777 561.902Z" stroke="white" stroke-miterlimit="10"/>
<path d="M143.176 604.141L112.747 611.646L143.176 604.141Z" stroke="white" stroke-miterlimit="10"/>
<path d="M1232.75 508.348L1228.49 478.568L1232.75 508.348Z" stroke="white" stroke-miterlimit="10"/>
<path d="M532.734 610.005L501.823 609.604L532.734 610.005Z" stroke="white" stroke-miterlimit="10"/>
<path d="M630.43 516.531L605.229 534.769L630.43 516.531Z" stroke="white" stroke-miterlimit="10"/>
<path d="M1238.64 636.138L1236.29 606.496L1238.64 636.138Z" stroke="white" stroke-miterlimit="10"/>
<path d="M535.293 390.158L504.362 394.649L535.293 390.158Z" stroke="white" stroke-miterlimit="10"/>
<path d="M622.719 196.354L610.547 167.885L622.719 196.354Z" stroke="white" stroke-miterlimit="10"/>
<path d="M513.844 237.479L540.832 253.313L513.844 237.479Z" stroke="white" stroke-miterlimit="10"/>
<path d="M614.867 234.09L587.866 219.045L614.867 234.09Z" stroke="white" stroke-miterlimit="10"/>
<path d="M1397.53 12.1807L1423.28 29.9115L1397.53 12.1807Z" stroke="white" stroke-miterlimit="10"/>
<path d="M64.7852 303.228L35.1661 295.551L64.7852 303.228Z" stroke="white" stroke-miterlimit="10"/>
<path d="M521.29 280.85L551.605 287.078L521.29 280.85Z" stroke="white" stroke-miterlimit="10"/>
<path d="M525.837 460.115L554.934 449.719L525.837 460.115Z" stroke="white" stroke-miterlimit="10"/>
<path d="M588.594 276.215L558.801 277.084L588.594 276.215Z" stroke="white" stroke-miterlimit="10"/>
<path d="M561.41 598.036L588.84 583.795L561.41 598.036Z" stroke="white" stroke-miterlimit="10"/>
<path d="M559.524 439.466L586.98 423.914L559.524 439.466Z" stroke="white" stroke-miterlimit="10"/>
<path d="M583.395 545.516L554.003 555.003L583.395 545.516Z" stroke="white" stroke-miterlimit="10"/>
<path d="M1264.68 107.129L1294.39 114.575L1264.68 107.129Z" stroke="white" stroke-miterlimit="10"/>
<path d="M575.809 459.889L547.636 473.774L575.809 459.889Z" stroke="white" stroke-miterlimit="10"/>
<path d="M572.688 371.018L544.622 383.83L572.688 371.018Z" stroke="white" stroke-miterlimit="10"/>
<path d="M83.7461 504.944L53.2566 504.424L83.7461 504.944Z" stroke="white" stroke-miterlimit="10"/>
<path d="M66.3664 27.6064L84.8047 53.1131L66.3664 27.6064Z" stroke="white" stroke-miterlimit="10"/>
<path d="M557.938 359.021L528.747 368.028L557.938 359.021Z" stroke="white" stroke-miterlimit="10"/>
<path d="M588.961 181.878L574.58 154.738L588.961 181.878Z" stroke="white" stroke-miterlimit="10"/>
<path d="M599.992 346.137L570.581 356.342L599.992 346.137Z" stroke="white" stroke-miterlimit="10"/>
<path d="M584.11 528.674L610.441 511.779L584.11 528.674Z" stroke="white" stroke-miterlimit="10"/>
<path d="M591.517 493.988L615.746 473.959L591.517 493.988Z" stroke="white" stroke-miterlimit="10"/>
<path d="M543.902 268.417L516.011 255.611L543.902 268.417Z" stroke="white" stroke-miterlimit="10"/>
<path d="M595.532 64.1807L615.336 40.1357L595.532 64.1807Z" stroke="white" stroke-miterlimit="10"/>
<path d="M523.342 176.807L540.254 202.985L523.342 176.807Z" stroke="white" stroke-miterlimit="10"/>
<path d="M622.73 358.521L596.867 376.43L622.73 358.521Z" stroke="white" stroke-miterlimit="10"/>
<path d="M599.127 333.286L625.426 317.926L599.127 333.286Z" stroke="white" stroke-miterlimit="10"/>
<path d="M1350.36 37.5821L1320.09 32.8877L1350.36 37.5821Z" stroke="white" stroke-miterlimit="10"/>
<path d="M628.203 400.822L605.393 421.74L628.203 400.822Z" stroke="white" stroke-miterlimit="10"/>
<path d="M634.219 440.453L612.62 463.004L634.219 440.453Z" stroke="white" stroke-miterlimit="10"/>
<path d="M-3.6281 209.023L20.1797 227.564L-3.6281 209.023Z" stroke="white" stroke-miterlimit="10"/>
<path d="M614.981 385.583L639.305 365.344L614.981 385.583Z" stroke="white" stroke-miterlimit="10"/>
<path d="M493.189 309.535L523.062 316.211L493.189 309.535Z" stroke="white" stroke-miterlimit="10"/>
<path d="M617.385 54.6539L639.238 32.459L617.385 54.6539Z" stroke="white" stroke-miterlimit="10"/>
<path d="M642.172 595.652L615.164 610.782L642.172 595.652Z" stroke="white" stroke-miterlimit="10"/>
<path d="M518.785 373.482L488.322 374.292L518.785 373.482Z" stroke="white" stroke-miterlimit="10"/>
<path d="M513.957 158.623L504.075 129.66L513.957 158.623Z" stroke="white" stroke-miterlimit="10"/>
<path d="M644.715 405.598L623.565 428.01L644.715 405.598Z" stroke="white" stroke-miterlimit="10"/>
<path d="M483.45 518.001L513.082 514.393L483.45 518.001Z" stroke="white" stroke-miterlimit="10"/>
<path d="M1307.28 137.664L1335.41 152.656L1307.28 137.664Z" stroke="white" stroke-miterlimit="10"/>
<path d="M656.906 482.348L636.888 505.675L656.906 482.348Z" stroke="white" stroke-miterlimit="10"/>
<path d="M504.109 355.394L474.316 353.004L504.109 355.394Z" stroke="white" stroke-miterlimit="10"/>
<path d="M1318.41 539.877L1328.02 568.702L1318.41 539.877Z" stroke="white" stroke-miterlimit="10"/>
<path d="M-1.45597 296.176L26.3555 309.212L-1.45597 296.176Z" stroke="white" stroke-miterlimit="10"/>
<path d="M461.389 457.67L494.355 453.107L461.389 457.67Z" stroke="white" stroke-miterlimit="10"/>
<path d="M679.086 157.544L699.473 134.48L679.086 157.544Z" stroke="white" stroke-miterlimit="10"/>
<path d="M46.1758 46.1065L30.0808 20.4287L46.1758 46.1065Z" stroke="white" stroke-miterlimit="10"/>
<path d="M477.945 149.01L467.555 120.316L477.945 149.01Z" stroke="white" stroke-miterlimit="10"/>
<path d="M59.7422 200.852L34.5083 183.352L59.7422 200.852Z" stroke="white" stroke-miterlimit="10"/>
<path d="M62.2617 167.121L37.3961 148.369L62.2617 167.121Z" stroke="white" stroke-miterlimit="10"/>
<path d="M1360.48 499.17L1350.04 470.443L1360.48 499.17Z" stroke="white" stroke-miterlimit="10"/>
<path d="M722.237 544.842L731.543 515.879L722.237 544.842Z" stroke="white" stroke-miterlimit="10"/>
<path d="M40.4402 475.184L70.3672 475.184L40.4402 475.184Z" stroke="white" stroke-miterlimit="10"/>
<path d="M747.992 429.247L741.09 400.488L747.992 429.247Z" stroke="white" stroke-miterlimit="10"/>
<path d="M749.398 275.443L745.95 304.67L749.398 275.443Z" stroke="white" stroke-miterlimit="10"/>
<path d="M1374.13 461.14L1365.02 432.098L1374.13 461.14Z" stroke="white" stroke-miterlimit="10"/>
<path d="M1414.96 646.145L1397.71 620.691L1414.96 646.145Z" stroke="white" stroke-miterlimit="10"/>
<path d="M1275.14 551.098L1273.64 581.035L1275.14 551.098Z" stroke="white" stroke-miterlimit="10"/>
<path d="M399.865 433.486L427.562 448.564L399.865 433.486Z" stroke="white" stroke-miterlimit="10"/>
<path d="M783.343 318.417L788.277 289.02L783.343 318.417Z" stroke="white" stroke-miterlimit="10"/>
<path d="M120.555 492.342L90.949 499.979L120.555 492.342Z" stroke="white" stroke-miterlimit="10"/>
<path d="M817.07 257.635L802.542 229.752L817.07 257.635Z" stroke="white" stroke-miterlimit="10"/>
<path d="M126.648 417.094L96.9089 418.792L126.648 417.094Z" stroke="white" stroke-miterlimit="10"/>
<path d="M376.38 396.809L401.219 414.974L376.38 396.809Z" stroke="white" stroke-miterlimit="10"/>
<path d="M114.623 -6.05859L140.004 11.4353L114.623 -6.05859Z" stroke="white" stroke-miterlimit="10"/>
<path d="M826.635 165.055L849.277 186.005L826.635 165.055Z" stroke="white" stroke-miterlimit="10"/>
<path d="M387.066 239.806L367.349 216.248L387.066 239.806Z" stroke="white" stroke-miterlimit="10"/>
<path d="M1199.24 29.2842L1228.61 20.9883L1199.24 29.2842Z" stroke="white" stroke-miterlimit="10"/>
<path d="M350.858 431.354L379.426 443.086L350.858 431.354Z" stroke="white" stroke-miterlimit="10"/>
<path d="M1393.68 183.432L1412.04 208.754L1393.68 183.432Z" stroke="white" stroke-miterlimit="10"/>
<path d="M352.901 107.635L363.586 135.894L352.901 107.635Z" stroke="white" stroke-miterlimit="10"/>
<path d="M870.869 350.152L882.98 378.319L870.869 350.152Z" stroke="white" stroke-miterlimit="10"/>
<path d="M870.136 270.867L881.625 299.35L870.136 270.867Z" stroke="white" stroke-miterlimit="10"/>
<path d="M914.922 329.332L893.082 303.246L914.922 329.332Z" stroke="white" stroke-miterlimit="10"/>
<path d="M349.199 255.942L330.607 230.455L349.199 255.942Z" stroke="white" stroke-miterlimit="10"/>
<path d="M923.332 646.52L911.495 674.871L923.332 646.52Z" stroke="white" stroke-miterlimit="10"/>
<path d="M341.109 513.582L312.086 503.521L341.109 513.582Z" stroke="white" stroke-miterlimit="10"/>
<path d="M926.84 287.881L905.489 265.666L926.84 287.881Z" stroke="white" stroke-miterlimit="10"/>
<path d="M304 424.639L332.762 435.838L304 424.639Z" stroke="white" stroke-miterlimit="10"/>
<path d="M898.759 22.8594L928.492 26.4345L898.759 22.8594Z" stroke="white" stroke-miterlimit="10"/>
<path d="M929.543 597.377L925.151 626.65L929.543 597.377Z" stroke="white" stroke-miterlimit="10"/>
<path d="M941.816 479.221L926.424 452.727L941.816 479.221Z" stroke="white" stroke-miterlimit="10"/>
<path d="M934.813 662.29L945.277 633.926L934.813 662.29Z" stroke="white" stroke-miterlimit="10"/>
<path d="M955.789 517.113L943.182 489.275L955.789 517.113Z" stroke="white" stroke-miterlimit="10"/>
<path d="M196.777 69.2949L172.97 49.5361L196.777 69.2949Z" stroke="white" stroke-miterlimit="10"/>
<path d="M296.362 -22.7559L308.969 6.05598L296.362 -22.7559Z" stroke="white" stroke-miterlimit="10"/>
<path d="M964.746 520.869L974.086 549.609L964.746 520.869Z" stroke="white" stroke-miterlimit="10"/>
<path d="M305.988 624.215L277.28 636.514L305.988 624.215Z" stroke="white" stroke-miterlimit="10"/>
<path d="M1387.86 415.985L1377.15 388.424L1387.86 415.985Z" stroke="white" stroke-miterlimit="10"/>
<path d="M297.031 355.256L269.709 340.719L297.031 355.256Z" stroke="white" stroke-miterlimit="10"/>
<path d="M1119.72 433.875L1136.28 460.435L1119.72 433.875Z" stroke="white" stroke-miterlimit="10"/>
<path d="M981.491 557.148L984.738 586.783L981.491 557.148Z" stroke="white" stroke-miterlimit="10"/>
<path d="M286.699 325.608L263.414 305.678L286.699 325.608Z" stroke="white" stroke-miterlimit="10"/>
<path d="M1007.14 218.841L982.064 200.734L1007.14 218.841Z" stroke="white" stroke-miterlimit="10"/>
<path d="M226.617 531.986L197.48 540.921L226.617 531.986Z" stroke="white" stroke-miterlimit="10"/>
<path d="M1023.71 26.5273L994.169 32.5254L1023.71 26.5273Z" stroke="white" stroke-miterlimit="10"/>
<path d="M1021.84 500.131L1008.66 472.682L1021.84 500.131Z" stroke="white" stroke-miterlimit="10"/>
<path d="M1034.29 485.329L1017.22 459.717L1034.29 485.329Z" stroke="white" stroke-miterlimit="10"/>
<path d="M1054.24 393.957L1079.91 411.28L1054.24 393.957Z" stroke="white" stroke-miterlimit="10"/>
<path d="M1389.72 468.836L1402.28 496.423L1389.72 468.836Z" stroke="white" stroke-miterlimit="10"/>
<path d="M231.559 118.5L250.332 143.322L231.559 118.5Z" stroke="white" stroke-miterlimit="10"/>
<path d="M248.785 320.038L223.759 301.807L248.785 320.038Z" stroke="white" stroke-miterlimit="10"/>
<path d="M540.031 425.796L568.445 413.859L540.031 425.796Z" stroke="white" stroke-miterlimit="10"/>
<path d="M1038.45 609.764L1034.76 634.915L1038.45 609.764Z" stroke="white" stroke-miterlimit="10"/>
<path d="M235.285 590.926L264.309 580.99L235.285 590.926Z" stroke="white" stroke-miterlimit="10"/>
<path d="M242.659 -13.8398L266.266 6.39956L242.659 -13.8398Z" stroke="white" stroke-miterlimit="10"/>
<path d="M587.81 25.4144L610.359 4.3125L587.81 25.4144Z" stroke="white" stroke-miterlimit="10"/>
<path d="M1091.35 484.447L1105.18 511.712L1091.35 484.447Z" stroke="white" stroke-miterlimit="10"/>
<path d="M-28.3127 76.2627L1.29297 85.8491L-28.3127 76.2627Z" stroke="white" stroke-miterlimit="10"/>
<path d="M267.231 129.85L285.348 154.777L267.231 129.85Z" stroke="white" stroke-miterlimit="10"/>
<path d="M1107.6 438.872L1086.49 416.414L1107.6 438.872Z" stroke="white" stroke-miterlimit="10"/>
<path d="M633.816 -4.30664L609.714 19.1524L633.816 -4.30664Z" stroke="white" stroke-miterlimit="10"/>
<path d="M501.051 245.157L477.939 225.207L501.051 245.157Z" stroke="white" stroke-miterlimit="10"/>
<path d="M1159.57 443.152L1171.26 470.516L1159.57 443.152Z" stroke="white" stroke-miterlimit="10"/>
<path d="M307.059 82.8398L292.008 57.0303L307.059 82.8398Z" stroke="white" stroke-miterlimit="10"/>
<path d="M698.783 652.018L723.93 633.951L698.783 652.018Z" stroke="white" stroke-miterlimit="10"/>
<path d="M154.271 667.716L182.391 654.766L154.271 667.716Z" stroke="white" stroke-miterlimit="10"/>
<path d="M1384.31 541.3L1370.53 514.299L1384.31 541.3Z" stroke="white" stroke-miterlimit="10"/>
<path d="M439.824 225.346L463.859 244.393L439.824 225.346Z" stroke="white" stroke-miterlimit="10"/>
<path d="M43.7199 112.352L66.8984 133.045L43.7199 112.352Z" stroke="white" stroke-miterlimit="10"/>
<path d="M122.407 88.8496L149.891 103.934L122.407 88.8496Z" stroke="white" stroke-miterlimit="10"/>
<path d="M354.662 607.636L383.973 597.529L354.662 607.636Z" stroke="white" stroke-miterlimit="10"/>
<path d="M843.037 120.924L869.234 136.33L843.037 120.924Z" stroke="white" stroke-miterlimit="10"/>
<path d="M144.016 128.795L115.521 117.859L144.016 128.795Z" stroke="white" stroke-miterlimit="10"/>
<path d="M845.93 463.853L829.949 437.576L845.93 463.853Z" stroke="white" stroke-miterlimit="10"/>
<path d="M398.219 608.814L369.972 619.895L398.219 608.814Z" stroke="white" stroke-miterlimit="10"/>
<path d="M140.887 453.293L111.274 457.145L140.887 453.293Z" stroke="white" stroke-miterlimit="10"/>
<path d="M819.027 223.667L798.627 199.951L819.027 223.667Z" stroke="white" stroke-miterlimit="10"/>
<path d="M802.793 495.562L802.793 525.105L802.793 495.562Z" stroke="white" stroke-miterlimit="10"/>
<path d="M443.293 400.383L413.56 393.937L443.293 400.383Z" stroke="white" stroke-miterlimit="10"/>
<path d="M1250.28 586.072L1253.74 615.233L1250.28 586.072Z" stroke="white" stroke-miterlimit="10"/>
<path d="M1346.22 134.879L1372.07 151.747L1346.22 134.879Z" stroke="white" stroke-miterlimit="10"/>
<path d="M765.165 610.874L777.25 583.234L765.165 610.874Z" stroke="white" stroke-miterlimit="10"/>
<path d="M409.141 273.23L430.793 294.589L409.141 273.23Z" stroke="white" stroke-miterlimit="10"/>
<path d="M197.135 464.577L227.176 463.773L197.135 464.577Z" stroke="white" stroke-miterlimit="10"/>
<path d="M1260.83 141.88L1231.52 139.174L1260.83 141.88Z" stroke="white" stroke-miterlimit="10"/>
<path d="M997.037 422.273L1019.19 443.435L997.037 422.273Z" stroke="white" stroke-miterlimit="10"/>
<path d="M977.229 292.352L994.375 317.674L977.229 292.352Z" stroke="white" stroke-miterlimit="10"/>
<path d="M1354.17 597.779L1343.88 568.875L1354.17 597.779Z" stroke="white" stroke-miterlimit="10"/>
<path d="M163.273 54.9105L139.64 35.2373L163.273 54.9105Z" stroke="white" stroke-miterlimit="10"/>
<path d="M1434.34 80.4903L1412.14 58.5654L1434.34 80.4903Z" stroke="white" stroke-miterlimit="10"/>
<path d="M642.898 326.227L625.404 351.022L642.898 326.227Z" stroke="white" stroke-miterlimit="10"/>
<path d="M635.814 9.86913L661.309 -6.54492L635.814 9.86913Z" stroke="white" stroke-miterlimit="10"/>
<path d="M669.223 62.416L651.099 86.6717L669.223 62.416Z" stroke="white" stroke-miterlimit="10"/>
<path d="M652.053 43.3349L679.309 28.7578L652.053 43.3349Z" stroke="white" stroke-miterlimit="10"/>
<path d="M295.501 263.25L316.129 286.795L295.501 263.25Z" stroke="white" stroke-miterlimit="10"/>
<path d="M814.823 558.98L819.965 529.812L814.823 558.98Z" stroke="white" stroke-miterlimit="10"/>
<path d="M911.97 104.941L941.891 109.432L911.97 104.941Z" stroke="white" stroke-miterlimit="10"/>
<path d="M657.75 123.489L672.332 95.2109L657.75 123.489Z" stroke="white" stroke-miterlimit="10"/>
<path d="M465.363 268.096L442.098 248.324L465.363 268.096Z" stroke="white" stroke-miterlimit="10"/>
<path d="M463.965 200.037L447.127 174.609L463.965 200.037Z" stroke="white" stroke-miterlimit="10"/>
<path d="M863.026 85.7109L886.145 91.1231L863.026 85.7109Z" stroke="white" stroke-miterlimit="10"/>
<path d="M1092.05 402.668L1114.8 423.046L1092.05 402.668Z" stroke="white" stroke-miterlimit="10"/>
<path d="M203.568 666.11L225.949 645.324L203.568 666.11Z" stroke="white" stroke-miterlimit="10"/>
<path d="M403.803 248.186L428.16 267.576L403.803 248.186Z" stroke="white" stroke-miterlimit="10"/>
<path d="M780.215 255.099L762.895 230.033L780.215 255.099Z" stroke="white" stroke-miterlimit="10"/>
<path d="M1038.43 425.764L1057.41 446.517L1038.43 425.764Z" stroke="white" stroke-miterlimit="10"/>
<path d="M940.766 436.291L958.555 457.399L940.766 436.291Z" stroke="white" stroke-miterlimit="10"/>
<path d="M1022.88 572.346L1020.92 601.816L1022.88 572.346Z" stroke="white" stroke-miterlimit="10"/>
<path d="M89.1797 409.363L59.4534 407.559L89.1797 409.363Z" stroke="white" stroke-miterlimit="10"/>
<path d="M1191.39 631.417L1196.06 602.5L1191.39 631.417Z" stroke="white" stroke-miterlimit="10"/>
<path d="M1252.07 516.697L1250.6 546.839L1252.07 516.697Z" stroke="white" stroke-miterlimit="10"/>
<path d="M796.414 103.284L766.668 101.559L796.414 103.284Z" stroke="white" stroke-miterlimit="10"/>
<path d="M28.2834 539.41L58.1836 541.115L28.2834 539.41Z" stroke="white" stroke-miterlimit="10"/>
<path d="M1161.55 594.975L1158.17 615.787L1161.55 594.975Z" stroke="white" stroke-miterlimit="10"/>
<path d="M1066.11 609.544L1067.82 580.594L1066.11 609.544Z" stroke="white" stroke-miterlimit="10"/>
<path d="M445.059 120.803L445.059 91.4912L445.059 120.803Z" stroke="white" stroke-miterlimit="10"/>
<path d="M1207.55 613.388L1208.57 584.023L1207.55 613.388Z" stroke="white" stroke-miterlimit="10"/>
<path d="M236.012 397.262L206.594 395.096L236.012 397.262Z" stroke="white" stroke-miterlimit="10"/>
<path d="M1330.05 329.571L1314.04 302.221L1330.05 329.571Z" stroke="white" stroke-miterlimit="10"/>
<path d="M1343.56 364.328L1355.23 392.515L1343.56 364.328Z" stroke="white" stroke-miterlimit="10"/>
<path d="M1339.48 236.906L1315.4 216.641L1339.48 236.906Z" stroke="white" stroke-miterlimit="10"/>
<path d="M1106.69 340.842L1076.23 332.467L1106.69 340.842Z" stroke="white" stroke-miterlimit="10"/>
<path d="M1180.89 314.433L1158.16 307.639L1180.89 314.433Z" stroke="white" stroke-miterlimit="10"/>
<path d="M1189.84 297.834L1161.45 284.93L1189.84 297.834Z" stroke="white" stroke-miterlimit="10"/>
<path d="M1202.21 238.994L1231.27 250.345L1202.21 238.994Z" stroke="white" stroke-miterlimit="10"/>
<path d="M1240.21 237.578L1266.71 254.44L1240.21 237.578Z" stroke="white" stroke-miterlimit="10"/>
<path d="M1236.49 178.783L1266.51 186.368L1236.49 178.783Z" stroke="white" stroke-miterlimit="10"/>
<path d="M1296.21 454.754L1288.53 423.77L1296.21 454.754Z" stroke="white" stroke-miterlimit="10"/>
<path d="M1183.52 375.25L1202.24 400.822L1183.52 375.25Z" stroke="white" stroke-miterlimit="10"/>
<path d="M1194.42 421.22L1177.06 395.352L1194.42 421.22Z" stroke="white" stroke-miterlimit="10"/>
<path d="M1302.58 375.922L1312.41 405.208L1302.58 375.922Z" stroke="white" stroke-miterlimit="10"/>
<path d="M1352.33 313.492L1365.02 341.362L1352.33 313.492Z" stroke="white" stroke-miterlimit="10"/>
<path d="M1314.39 196.361L1339.08 216.93L1314.39 196.361Z" stroke="white" stroke-miterlimit="10"/>
<path d="M1353.69 289.895L1370.57 315.618L1353.69 289.895Z" stroke="white" stroke-miterlimit="10"/>
<path d="M1399.74 361.918L1389.05 333.1L1399.74 361.918Z" stroke="white" stroke-miterlimit="10"/>
<path d="M1131.57 382.328L1107.17 361.818L1131.57 382.328Z" stroke="white" stroke-miterlimit="10"/>
<path d="M1175.47 363.299L1151.57 343.35L1175.47 363.299Z" stroke="white" stroke-miterlimit="10"/>
<path d="M1163.64 261.623L1192.67 272.329L1163.64 261.623Z" stroke="white" stroke-miterlimit="10"/>
<path d="M1201.77 280.098L1226.4 298.513L1201.77 280.098Z" stroke="white" stroke-miterlimit="10"/>
<path d="M1230.12 269.551L1202.95 254.605L1230.12 269.551Z" stroke="white" stroke-miterlimit="10"/>
<path d="M1303.9 196.739L1277.84 180.871L1303.9 196.739Z" stroke="white" stroke-miterlimit="10"/>
<path d="M1277.73 226.141L1301.2 240.257L1277.73 226.141Z" stroke="white" stroke-miterlimit="10"/>
<path d="M1279.42 259.607L1302.07 281.401L1279.42 259.607Z" stroke="white" stroke-miterlimit="10"/>
<path d="M1411.89 397.592L1425.32 425.436L1411.89 397.592Z" stroke="white" stroke-miterlimit="10"/>
<path d="M1278.36 279.611L1299.79 302.228L1278.36 279.611Z" stroke="white" stroke-miterlimit="10"/>
<path d="M1237.9 195.236L1267.95 204.724L1237.9 195.236Z" stroke="white" stroke-miterlimit="10"/>
<path d="M1270.3 346.109L1286.75 372.564L1270.3 346.109Z" stroke="white" stroke-miterlimit="10"/>
<path d="M1287.57 476.409L1280.48 447.07L1287.57 476.409Z" stroke="white" stroke-miterlimit="10"/>
<path d="M1263.69 294.596L1239 275.904L1263.69 294.596Z" stroke="white" stroke-miterlimit="10"/>
<path d="M1223.86 371.381L1240.6 397.447L1223.86 371.381Z" stroke="white" stroke-miterlimit="10"/>
<path d="M1202.29 215.824L1231.71 223.449L1202.29 215.824Z" stroke="white" stroke-miterlimit="10"/>
<path d="M1198.97 299.588L1223.34 319.366L1198.97 299.588Z" stroke="white" stroke-miterlimit="10"/>
<path d="M1195.16 319.807L1220.68 337.682L1195.16 319.807Z" stroke="white" stroke-miterlimit="10"/>
<path d="M1207.12 426.975L1217.97 455.721L1207.12 426.975Z" stroke="white" stroke-miterlimit="10"/>
<path d="M1374.35 264.29L1355.9 239.08L1374.35 264.29Z" stroke="white" stroke-miterlimit="10"/>
<path d="M1183.36 335.067L1155.61 321.768L1183.36 335.067Z" stroke="white" stroke-miterlimit="10"/>
<path d="M1406.43 319.886L1393.97 292.285L1406.43 319.886Z" stroke="white" stroke-miterlimit="10"/>
<path d="M1188.86 355.492L1210.95 377.371L1188.86 355.492Z" stroke="white" stroke-miterlimit="10"/>
<path d="M1234.11 416.862L1218.37 390.822L1234.11 416.862Z" stroke="white" stroke-miterlimit="10"/>
<path d="M1252.27 356.486L1231.61 333.811L1252.27 356.486Z" stroke="white" stroke-miterlimit="10"/>
<path d="M1291.16 350.343L1271.21 326.818L1291.16 350.343Z" stroke="white" stroke-miterlimit="10"/>
<path d="M1227.02 161.283L1196.92 159.439L1227.02 161.283Z" stroke="white" stroke-miterlimit="10"/>
</g>
<g filter="url(#filter19_f_625_5371)">
<ellipse cx="705.857" cy="227.042" rx="308.736" ry="151.058" fill="#062A96"/>
</g>
</g>
</g>
</g>
<g opacity="0.5" filter="url(#filter20_f_625_5371)">
<ellipse cx="705.997" cy="260.811" rx="278.208" ry="127.451" fill="#11019F"/>
</g>
</g>
<defs>
<filter id="filter0_ii_625_5371" x="0" y="-36" width="1412" height="768" filterUnits="userSpaceOnUse" color-interpolation-filters="sRGB">
<feFlood flood-opacity="0" result="BackgroundImageFix"/>
<feBlend mode="normal" in="SourceGraphic" in2="BackgroundImageFix" result="shape"/>
<feColorMatrix in="SourceAlpha" type="matrix" values="0 0 0 0 0 0 0 0 0 0 0 0 0 0 0 0 0 0 127 0" result="hardAlpha"/>
<feOffset dy="-36"/>
<feGaussianBlur stdDeviation="59.6"/>
<feComposite in2="hardAlpha" operator="arithmetic" k2="-1" k3="1"/>
<feColorMatrix type="matrix" values="0 0 0 0 1 0 0 0 0 1 0 0 0 0 1 0 0 0 0.2 0"/>
<feBlend mode="normal" in2="shape" result="effect1_innerShadow_625_5371"/>
<feColorMatrix in="SourceAlpha" type="matrix" values="0 0 0 0 0 0 0 0 0 0 0 0 0 0 0 0 0 0 127 0" result="hardAlpha"/>
<feOffset dy="71"/>
<feGaussianBlur stdDeviation="125"/>
<feComposite in2="hardAlpha" operator="arithmetic" k2="-1" k3="1"/>
<feColorMatrix type="matrix" values="0 0 0 0 0.0392157 0 0 0 0 0.105882 0 0 0 0 0.666667 0 0 0 1 0"/>
<feBlend mode="normal" in2="effect1_innerShadow_625_5371" result="effect2_innerShadow_625_5371"/>
</filter>
<filter id="filter1_f_625_5371" x="-495.289" y="-233.367" width="2402.57" height="1407.33" filterUnits="userSpaceOnUse" color-interpolation-filters="sRGB">
<feFlood flood-opacity="0" result="BackgroundImageFix"/>
<feBlend mode="normal" in="SourceGraphic" in2="BackgroundImageFix" result="shape"/>
<feGaussianBlur stdDeviation="50" result="effect1_foregroundBlur_625_5371"/>
</filter>
<filter id="filter2_f_625_5371" x="228.352" y="-87.4902" width="955.293" height="696.599" filterUnits="userSpaceOnUse" color-interpolation-filters="sRGB">
<feFlood flood-opacity="0" result="BackgroundImageFix"/>
<feBlend mode="normal" in="SourceGraphic" in2="BackgroundImageFix" result="shape"/>
<feGaussianBlur stdDeviation="113.75" result="effect1_foregroundBlur_625_5371"/>
</filter>
<filter id="filter3_f_625_5371" x="66.793" y="-33.8457" width="1278.44" height="877.034" filterUnits="userSpaceOnUse" color-interpolation-filters="sRGB">
<feFlood flood-opacity="0" result="BackgroundImageFix"/>
<feBlend mode="normal" in="SourceGraphic" in2="BackgroundImageFix" result="shape"/>
<feGaussianBlur stdDeviation="54.5" result="effect1_foregroundBlur_625_5371"/>
</filter>
<filter id="filter4_f_625_5371" x="75.793" y="-24.8457" width="1260.44" height="859.034" filterUnits="userSpaceOnUse" color-interpolation-filters="sRGB">
<feFlood flood-opacity="0" result="BackgroundImageFix"/>
<feBlend mode="normal" in="SourceGraphic" in2="BackgroundImageFix" result="shape"/>
<feGaussianBlur stdDeviation="0" result="effect1_foregroundBlur_625_5371"/>
</filter>
<filter id="filter5_f_625_5371" x="75.793" y="-24.8457" width="1260.44" height="859.034" filterUnits="userSpaceOnUse" color-interpolation-filters="sRGB">
<feFlood flood-opacity="0" result="BackgroundImageFix"/>
<feBlend mode="normal" in="SourceGraphic" in2="BackgroundImageFix" result="shape"/>
<feGaussianBlur stdDeviation="35.35" result="effect1_foregroundBlur_625_5371"/>
</filter>
<filter id="filter6_f_625_5371" x="264.562" y="135.426" width="882.867" height="512.96" filterUnits="userSpaceOnUse" color-interpolation-filters="sRGB">
<feFlood flood-opacity="0" result="BackgroundImageFix"/>
<feBlend mode="normal" in="SourceGraphic" in2="BackgroundImageFix" result="shape"/>
<feGaussianBlur stdDeviation="46.25" result="effect1_foregroundBlur_625_5371"/>
</filter>
<filter id="filter7_f_625_5371" x="257.062" y="127.926" width="897.867" height="527.96" filterUnits="userSpaceOnUse" color-interpolation-filters="sRGB">
<feFlood flood-opacity="0" result="BackgroundImageFix"/>
<feBlend mode="normal" in="SourceGraphic" in2="BackgroundImageFix" result="shape"/>
<feGaussianBlur stdDeviation="0" result="effect1_foregroundBlur_625_5371"/>
</filter>
<filter id="filter8_f_625_5371" x="257.062" y="127.926" width="897.867" height="527.96" filterUnits="userSpaceOnUse" color-interpolation-filters="sRGB">
<feFlood flood-opacity="0" result="BackgroundImageFix"/>
<feBlend mode="normal" in="SourceGraphic" in2="BackgroundImageFix" result="shape"/>
<feGaussianBlur stdDeviation="35.35" result="effect1_foregroundBlur_625_5371"/>
</filter>
<filter id="filter9_f_625_5371" x="97.6719" y="-225.867" width="1173.54" height="720.211" filterUnits="userSpaceOnUse" color-interpolation-filters="sRGB">
<feFlood flood-opacity="0" result="BackgroundImageFix"/>
<feBlend mode="normal" in="SourceGraphic" in2="BackgroundImageFix" result="shape"/>
<feGaussianBlur stdDeviation="46.25" result="effect1_foregroundBlur_625_5371"/>
</filter>
<filter id="filter10_f_625_5371" x="90.1719" y="-233.367" width="1188.54" height="735.211" filterUnits="userSpaceOnUse" color-interpolation-filters="sRGB">
<feFlood flood-opacity="0" result="BackgroundImageFix"/>
<feBlend mode="normal" in="SourceGraphic" in2="BackgroundImageFix" result="shape"/>
<feGaussianBlur stdDeviation="0" result="effect1_foregroundBlur_625_5371"/>
</filter>
<filter id="filter11_f_625_5371" x="90.1719" y="-233.367" width="1188.54" height="735.211" filterUnits="userSpaceOnUse" color-interpolation-filters="sRGB">
<feFlood flood-opacity="0" result="BackgroundImageFix"/>
<feBlend mode="normal" in="SourceGraphic" in2="BackgroundImageFix" result="shape"/>
<feGaussianBlur stdDeviation="35.35" result="effect1_foregroundBlur_625_5371"/>
</filter>
<filter id="filter12_f_625_5371" x="-795.289" y="2.28516" width="3002.57" height="1471.68" filterUnits="userSpaceOnUse" color-interpolation-filters="sRGB">
<feFlood flood-opacity="0" result="BackgroundImageFix"/>
<feBlend mode="normal" in="SourceGraphic" in2="BackgroundImageFix" result="shape"/>
<feGaussianBlur stdDeviation="200" result="effect1_foregroundBlur_625_5371"/>
</filter>
<filter id="filter13_f_625_5371" x="-495.289" y="302.285" width="2402.57" height="871.682" filterUnits="userSpaceOnUse" color-interpolation-filters="sRGB">
<feFlood flood-opacity="0" result="BackgroundImageFix"/>
<feBlend mode="normal" in="SourceGraphic" in2="BackgroundImageFix" result="shape"/>
<feGaussianBlur stdDeviation="0" result="effect1_foregroundBlur_625_5371"/>
</filter>
<filter id="filter14_f_625_5371" x="-174.531" y="-33.8457" width="1761.09" height="1176.98" filterUnits="userSpaceOnUse" color-interpolation-filters="sRGB">
<feFlood flood-opacity="0" result="BackgroundImageFix"/>
<feBlend mode="normal" in="SourceGraphic" in2="BackgroundImageFix" result="shape"/>
<feGaussianBlur stdDeviation="54.5" result="effect1_foregroundBlur_625_5371"/>
</filter>
<filter id="filter15_f_625_5371" x="-165.531" y="-24.8457" width="1743.09" height="1158.98" filterUnits="userSpaceOnUse" color-interpolation-filters="sRGB">
<feFlood flood-opacity="0" result="BackgroundImageFix"/>
<feBlend mode="normal" in="SourceGraphic" in2="BackgroundImageFix" result="shape"/>
<feGaussianBlur stdDeviation="0" result="effect1_foregroundBlur_625_5371"/>
</filter>
<filter id="filter16_f_625_5371" x="-165.531" y="-24.8457" width="1743.09" height="1158.98" filterUnits="userSpaceOnUse" color-interpolation-filters="sRGB">
<feFlood flood-opacity="0" result="BackgroundImageFix"/>
<feBlend mode="normal" in="SourceGraphic" in2="BackgroundImageFix" result="shape"/>
<feGaussianBlur stdDeviation="35.35" result="effect1_foregroundBlur_625_5371"/>
</filter>
<filter id="filter17_f_625_5371" x="-322.105" y="433.141" width="2056.21" height="840.826" filterUnits="userSpaceOnUse" color-interpolation-filters="sRGB">
<feFlood flood-opacity="0" result="BackgroundImageFix"/>
<feBlend mode="normal" in="SourceGraphic" in2="BackgroundImageFix" result="shape"/>
<feGaussianBlur stdDeviation="100" result="effect1_foregroundBlur_625_5371"/>
</filter>
<filter id="filter18_f_625_5371" x="-28.4" y="-86.4" width="1468.8" height="761.436" filterUnits="userSpaceOnUse" color-interpolation-filters="sRGB">
<feFlood flood-opacity="0" result="BackgroundImageFix"/>
<feBlend mode="normal" in="SourceGraphic" in2="BackgroundImageFix" result="shape"/>
<feGaussianBlur stdDeviation="7.2" result="effect1_foregroundBlur_625_5371"/>
</filter>
<filter id="filter19_f_625_5371" x="307.021" y="-14.1156" width="797.673" height="482.315" filterUnits="userSpaceOnUse" color-interpolation-filters="sRGB">
<feFlood flood-opacity="0" result="BackgroundImageFix"/>
<feBlend mode="normal" in="SourceGraphic" in2="BackgroundImageFix" result="shape"/>
<feGaussianBlur stdDeviation="45.05" result="effect1_foregroundBlur_625_5371"/>
</filter>
<filter id="filter20_f_625_5371" x="200.289" y="-94.1406" width="1011.41" height="709.902" filterUnits="userSpaceOnUse" color-interpolation-filters="sRGB">
<feFlood flood-opacity="0" result="BackgroundImageFix"/>
<feBlend mode="normal" in="SourceGraphic" in2="BackgroundImageFix" result="shape"/>
<feGaussianBlur stdDeviation="113.75" result="effect1_foregroundBlur_625_5371"/>
</filter>
<linearGradient id="paint0_linear_625_5371" x1="705.996" y1="228.848" x2="705.996" y2="718.628" gradientUnits="userSpaceOnUse">
<stop stop-color="#0052FF" stop-opacity="0.2"/>
<stop offset="1" stop-color="#0052FF"/>
</linearGradient>
<linearGradient id="paint1_linear_625_5371" x1="705.996" y1="227.926" x2="705.996" y2="545.788" gradientUnits="userSpaceOnUse">
<stop stop-color="#00D0FF" stop-opacity="0"/>
<stop offset="1" stop-color="#00D0FF"/>
</linearGradient>
<linearGradient id="paint2_linear_625_5371" x1="706.825" y1="375.658" x2="706.825" y2="-117.694" gradientUnits="userSpaceOnUse">
<stop offset="0.0144231" stop-color="#11019F" stop-opacity="0.2"/>
<stop offset="1" stop-color="#11019F"/>
</linearGradient>
<linearGradient id="paint3_linear_625_5371" x1="705.986" y1="298.799" x2="705.986" y2="1011.5" gradientUnits="userSpaceOnUse">
<stop stop-color="#11019F" stop-opacity="0.2"/>
<stop offset="1" stop-color="#11019F"/>
</linearGradient>
<radialGradient id="paint4_radial_625_5371" cx="0" cy="0" r="1" gradientUnits="userSpaceOnUse" gradientTransform="translate(706 169.512) rotate(90) scale(491.124 730.957)">
<stop offset="0.00961538" stop-color="#737373" stop-opacity="0.5"/>
<stop offset="0.937077" stop-color="#737373" stop-opacity="0.908536"/>
<stop offset="1" stop-color="#737373" stop-opacity="0"/>
</radialGradient>
<clipPath id="clip0_625_5371">
<rect width="1412" height="661" fill="white"/>
</clipPath>
</defs>
</svg>
