<svg width="78" height="22" viewBox="0 0 78 22" fill="none" xmlns="http://www.w3.org/2000/svg">
<path d="M20.7679 11.0108C20.7679 10.3491 20.7038 9.70882 20.5971 9.06849L17.9931 8.1507L20.1489 7.40365C20.1062 7.27559 20.0635 7.14752 19.9995 7.0408C18.42 3.26289 14.7275 0.616211 10.3946 0.616211C7.72658 0.616211 5.31469 1.61939 3.4791 3.26289C3.45775 3.28423 3.43641 3.30557 3.41506 3.32692C3.35103 3.39095 3.287 3.45498 3.22297 3.51902C3.15893 3.58305 3.11625 3.62574 3.05221 3.68977C3.03087 3.71111 2.98818 3.7538 2.96684 3.77515C1.13124 5.61074 0 8.17204 0 11.0108C0 11.6725 0.0640325 12.3128 0.170753 12.9531L2.79608 13.8496L0.640325 14.5966C0.683013 14.7247 0.725701 14.8528 0.789734 14.9595C2.34786 18.7374 6.06174 21.3841 10.3946 21.3841C13.212 21.3841 15.7733 20.2528 17.6516 18.4172C17.673 18.3959 17.7156 18.3532 17.737 18.3319C17.7583 18.3105 17.7797 18.2892 17.801 18.2678C19.6366 16.4109 20.7679 13.8496 20.7679 11.0108ZM15.3038 16.4963C14.2792 17.4567 12.4223 18.1824 10.3306 18.1184C10.3092 18.1184 10.2665 18.1184 10.2452 18.1184C7.19298 17.9904 4.78109 16.603 4.65303 14.8314C4.65303 14.8101 4.65303 14.7887 4.65303 14.746C4.65303 14.7034 4.65303 14.6393 4.65303 14.5966C4.69571 13.6361 5.33604 12.9958 5.33604 12.9958C5.33604 12.9958 3.4791 12.3342 2.98818 12.1421C4.9305 11.8219 6.59534 11.4164 8.00406 11.395C12.3156 11.331 14.3433 12.3982 15.3251 13.3373C15.3464 13.3587 15.3891 13.4014 15.4105 13.4227C15.4318 13.444 15.4318 13.4654 15.4532 13.4654C16.1575 14.2551 16.1789 15.5144 15.4745 16.3255C15.3891 16.3895 15.3464 16.4322 15.3038 16.4963ZM5.48545 5.50402C6.50997 4.54353 8.36691 3.81783 10.4373 3.88187C10.4586 3.88187 10.5013 3.88187 10.5227 3.88187C13.5749 4.03128 16.0081 5.41865 16.1362 7.19021C16.1362 7.21155 16.1362 7.2329 16.1362 7.27559C16.1362 7.31827 16.1362 7.38231 16.1362 7.425C16.0935 8.38548 15.4532 9.02581 15.4532 9.02581C15.4532 9.02581 17.3101 9.68748 17.801 9.87957C15.8587 10.1997 14.1939 10.6053 12.7851 10.6266C8.47363 10.6907 6.44594 9.62344 5.4641 8.6843C5.44276 8.66296 5.40007 8.62027 5.37873 8.59892C5.35738 8.57758 5.35738 8.55624 5.33604 8.55624C4.58899 7.72381 4.61034 6.37913 5.40007 5.5894C5.44276 5.54671 5.4641 5.52537 5.48545 5.50402Z" fill="#09090B"/>
<path d="M32.187 17.9476C29.9886 17.9476 27.7048 17.2859 25.9972 15.5997L27.7048 13.9136C29.3269 15.3223 30.5435 15.7918 32.123 15.7918C34.5562 15.7918 35.474 14.9381 35.474 14.1057C35.474 13.5294 34.9404 12.825 33.2115 12.3981C32.9127 12.3127 31.0344 11.8645 30.757 11.7791C28.3664 11.1388 26.4241 10.2637 26.4241 8.12929C26.4241 6.1016 28.3024 4.35138 32.0376 4.35138C34.2788 4.35138 36.1143 5.09842 37.6084 6.59251L35.9009 8.30005C34.8764 7.12612 33.6811 6.52848 32.059 6.52848C29.6044 6.52848 28.8573 7.42494 28.8573 8.06526C28.8573 8.68424 29.455 9.11113 31.7815 9.73011C32.059 9.81548 33.5957 10.1997 33.9159 10.2851C36.648 10.9681 37.9286 12.3341 37.9286 14.0203C37.9073 16.0266 36.2424 17.9476 32.187 17.9476Z" fill="#09090B"/>
<path d="M41.942 3.98861L39.1032 17.7769H41.451L44.2898 4.00996L41.942 3.98861Z" fill="#09090B"/>
<path d="M55.5804 13.6151H47.2775L47.5123 13.8498C47.8325 15.1732 48.8356 15.9416 50.4578 15.9416C51.4823 15.9416 52.3147 15.6001 53.2325 14.789L54.7693 16.3258C53.446 17.4997 52.0372 17.9479 50.4364 17.9479C46.7439 17.9479 45.0364 15.6428 45.0364 12.6973C45.0364 9.58102 46.9787 7.27585 50.3724 7.27585C53.9369 7.27585 55.6231 9.64505 55.6231 12.6973C55.6231 12.9107 55.6017 13.2736 55.5804 13.6151ZM53.4033 11.6301L53.1898 11.3953C52.827 10.0079 51.9092 9.30354 50.3724 9.30354C48.7929 9.30354 47.9178 10.0506 47.5336 11.3953L47.2988 11.6301H53.4033Z" fill="#09090B"/>
<path d="M61.3855 17.9694C59.6353 17.9694 57.757 17.2864 56.4763 16.0698L58.0985 14.4476C58.9309 15.3654 60.1902 15.9204 61.3215 15.9204C63.1357 15.9204 63.5626 15.2374 63.5626 14.8532C63.5626 14.5117 63.4345 14.1702 62.0472 13.8287C61.8337 13.786 60.4464 13.4018 60.2116 13.3377C58.3973 12.8682 56.7752 12.1425 56.7752 10.3496C56.7752 8.66337 58.3546 7.29734 61.2574 7.29734C63.1784 7.29734 64.5444 7.83094 65.7184 8.9195L64.1176 10.5203C63.4132 9.79461 62.3673 9.34638 61.2574 9.34638C59.5072 9.34638 59.123 10.0294 59.123 10.3069C59.123 10.7764 59.6993 10.9685 61.0867 11.3314C61.3215 11.3954 62.5167 11.7369 62.7515 11.801C64.8859 12.3559 65.9105 13.3377 65.9105 14.8105C65.9318 16.454 64.5444 17.9694 61.3855 17.9694Z" fill="#09090B"/>
<path d="M75.1111 17.7769V11.5871C75.1111 10.3065 74.7269 9.346 72.6352 9.346C71.0557 9.346 69.8818 10.2211 69.8818 11.8006V17.7983H67.5553V3.98861H69.8818V8.36417H69.9245C70.5862 7.68115 71.8241 7.27561 72.934 7.27561C75.8795 7.27561 77.459 8.94046 77.459 11.3523V17.7769H75.1111Z" fill="#09090B"/>
</svg>
