<svg width="17" height="18" viewBox="0 0 17 18" fill="none" xmlns="http://www.w3.org/2000/svg">
<path d="M8.63085 13.1831C10.9425 13.1831 12.8164 11.3092 12.8164 8.99755C12.8164 6.68594 10.9425 4.81201 8.63085 4.81201C6.31924 4.81201 4.44531 6.68594 4.44531 8.99755C4.44531 11.3092 6.31924 13.1831 8.63085 13.1831Z" fill="white"/>
<path d="M8.62781 4.81397H15.8762C15.1417 3.54135 14.0851 2.48455 12.8126 1.74981C11.5401 1.01508 10.0966 0.628315 8.62726 0.628418C7.15789 0.628521 5.71444 1.01548 4.44207 1.75039C3.16969 2.48531 2.11322 3.54226 1.37891 4.81499L5.0031 11.0923L5.00634 11.0914C4.63766 10.4557 4.44311 9.73397 4.44228 8.99905C4.44145 8.26413 4.63439 7.54197 5.00164 6.90539C5.36888 6.2688 5.89746 5.74028 6.53409 5.3731C7.17071 5.00593 7.89289 4.81307 8.62781 4.81397Z" fill="url(#paint0_linear_2003_4338)"/>
<path d="M8.62605 12.3141C10.4561 12.3141 11.9396 10.8306 11.9396 9.00057C11.9396 7.17054 10.4561 5.68701 8.62605 5.68701C6.79603 5.68701 5.3125 7.17054 5.3125 9.00057C5.3125 10.8306 6.79603 12.3141 8.62605 12.3141Z" fill="#1A73E8"/>
<path d="M12.2507 11.0942L8.6265 17.3715C10.0959 17.3717 11.5394 16.985 12.8119 16.2504C14.0844 15.5157 15.1411 14.459 15.8757 13.1864C16.6103 11.9139 16.9969 10.4703 16.9966 9.00098C16.9964 7.53161 16.6093 6.08822 15.8742 4.81592H8.62587L8.625 4.81916C9.35992 4.81774 10.0822 5.0101 10.7191 5.37684C11.356 5.74359 11.8849 6.27175 12.2526 6.90809C12.6203 7.54443 12.8137 8.26646 12.8134 9.00138C12.813 9.73631 12.619 10.4582 12.2507 11.0942Z" fill="url(#paint1_linear_2003_4338)"/>
<path d="M5.00384 11.0932L1.37965 4.81592C0.644781 6.08832 0.257867 7.53178 0.257813 9.00115C0.257758 10.4705 0.644564 11.914 1.37934 13.1865C2.11411 14.4589 3.17095 15.5155 4.44359 16.25C5.71623 16.9844 7.15981 17.3709 8.62918 17.3704L12.2534 11.0931L12.251 11.0908C11.8848 11.7279 11.357 12.2573 10.721 12.6255C10.0849 12.9936 9.36307 13.1876 8.62814 13.1879C7.89322 13.1881 7.17122 12.9946 6.53492 12.6269C5.89862 12.2591 5.37052 11.7301 5.00384 11.0932Z" fill="url(#paint2_linear_2003_4338)"/>
<defs>
<linearGradient id="paint0_linear_2003_4338" x1="1.37891" y1="5.86036" x2="15.8762" y2="5.86036" gradientUnits="userSpaceOnUse">
<stop stop-color="#D93025"/>
<stop offset="1" stop-color="#EA4335"/>
</linearGradient>
<linearGradient id="paint1_linear_2003_4338" x1="7.48287" y1="17.2595" x2="14.7315" y2="4.70451" gradientUnits="userSpaceOnUse">
<stop stop-color="#FCC934"/>
<stop offset="1" stop-color="#FBBC04"/>
</linearGradient>
<linearGradient id="paint2_linear_2003_4338" x1="9.53451" y1="16.8478" x2="2.28585" y2="4.29273" gradientUnits="userSpaceOnUse">
<stop stop-color="#1E8E3E"/>
<stop offset="1" stop-color="#34A853"/>
</linearGradient>
</defs>
</svg>
