<svg width="18" height="19" viewBox="0 0 18 19" fill="none" xmlns="http://www.w3.org/2000/svg">
<path d="M17.7992 9.5334C17.7992 8.98859 17.7465 8.46135 17.6586 7.93412L15.5145 7.17841L17.2896 6.5633C17.2544 6.45786 17.2193 6.35241 17.1665 6.26454C15.866 3.15385 12.8256 0.974609 9.25801 0.974609C7.06119 0.974609 5.07527 1.80061 3.56386 3.15385C3.54629 3.17142 3.52872 3.189 3.51114 3.20657C3.45842 3.2593 3.40569 3.31202 3.35297 3.36474C3.30025 3.41747 3.2651 3.45262 3.21237 3.50534C3.1948 3.52291 3.15965 3.55806 3.14208 3.57564C1.63067 5.08705 0.699219 7.19599 0.699219 9.5334C0.699219 10.0782 0.751942 10.6054 0.839815 11.1327L3.00148 11.8708L1.22645 12.4859C1.2616 12.5914 1.29675 12.6968 1.34948 12.7847C2.63242 15.8954 5.69038 18.0746 9.25801 18.0746C11.5778 18.0746 13.6868 17.1432 15.2333 15.6318C15.2509 15.6142 15.2861 15.579 15.3036 15.5615C15.3212 15.5439 15.3388 15.5263 15.3564 15.5087C16.8678 13.9797 17.7992 11.8708 17.7992 9.5334ZM13.3001 14.05C12.4566 14.8409 10.9276 15.4384 9.20528 15.3857C9.18771 15.3857 9.15256 15.3857 9.13498 15.3857C6.62183 15.2803 4.63591 14.1379 4.53046 12.6792C4.53046 12.6617 4.53046 12.6441 4.53046 12.6089C4.53046 12.5738 4.53046 12.5211 4.53046 12.4859C4.56561 11.6951 5.09285 11.1678 5.09285 11.1678C5.09285 11.1678 3.56386 10.623 3.15965 10.4648C4.75893 10.2012 6.12974 9.86731 7.28966 9.84974C10.8397 9.79701 12.5093 10.6757 13.3177 11.449C13.3353 11.4666 13.3704 11.5017 13.388 11.5193C13.4056 11.5369 13.4056 11.5545 13.4232 11.5545C14.0031 12.2047 14.0207 13.2416 13.4407 13.9094C13.3704 13.9622 13.3353 13.9973 13.3001 14.05ZM5.21587 4.99917C6.05944 4.20832 7.58843 3.61079 9.29315 3.66351C9.31073 3.66351 9.34588 3.66351 9.36345 3.66351C11.8766 3.78653 13.8801 4.92887 13.9855 6.38756C13.9855 6.40513 13.9855 6.42271 13.9855 6.45786C13.9855 6.49301 13.9855 6.54573 13.9855 6.58088C13.9504 7.37173 13.4232 7.89897 13.4232 7.89897C13.4232 7.89897 14.9521 8.44378 15.3564 8.60195C13.7571 8.86557 12.3863 9.19948 11.2264 9.21706C7.6763 9.26978 6.00672 8.39105 5.19829 7.61777C5.18072 7.6002 5.14557 7.56505 5.128 7.54748C5.11042 7.5299 5.11042 7.51233 5.09285 7.51233C4.47774 6.82692 4.49531 5.71973 5.14557 5.06947C5.18072 5.03432 5.19829 5.01675 5.21587 4.99917Z" fill="white"/>
</svg>
