<svg width="1440" height="228" viewBox="0 0 1440 228" fill="none" xmlns="http://www.w3.org/2000/svg">
<g opacity="0.7" filter="url(#filter0_i_625_6385)">
<rect x="573.5" y="88" width="142" height="72" rx="22" transform="rotate(180 573.5 88)" fill="#9A9AA5" fill-opacity="0.1"/>
</g>
<g opacity="0.5" filter="url(#filter1_i_625_6385)">
<rect x="411.453" y="108" width="142" height="72" rx="22" transform="rotate(180 411.453 108)" fill="#9A9AA5" fill-opacity="0.1"/>
</g>
<g opacity="0.3" filter="url(#filter2_i_625_6385)">
<rect x="249.406" y="148" width="142" height="72" rx="22" transform="rotate(180 249.406 148)" fill="#9A9AA5" fill-opacity="0.1"/>
</g>
<g opacity="0.15" filter="url(#filter3_i_625_6385)">
<rect x="87.3594" y="228" width="142" height="72" rx="22" transform="rotate(180 87.3594 228)" fill="#9A9AA5" fill-opacity="0.1"/>
</g>
<g filter="url(#filter4_di_625_6385)">
<rect x="593.5" y="10" width="253" height="82" rx="25" fill="#09090B"/>
<path d="M633.08 40.7H636.38V50.78L645.26 40.7H649.25L641.09 50L649.79 62H645.92L638.9 52.31L636.38 55.16V62H633.08V40.7ZM649.736 54.05C649.736 48.98 652.736 45.74 657.326 45.74C661.106 45.74 664.346 48.26 664.526 53.93V54.98H653.156C653.336 57.89 654.836 59.6 657.326 59.6C658.886 59.6 660.296 58.7 660.956 57.2L664.316 57.44C663.356 60.47 660.566 62.36 657.326 62.36C652.736 62.36 649.736 59.12 649.736 54.05ZM653.186 52.55H661.136C660.746 49.55 659.096 48.5 657.326 48.5C655.016 48.5 653.546 50 653.186 52.55ZM665.146 46.1H668.416L672.886 58.58L677.236 46.1H680.476L674.116 63.86C673.456 65.66 672.256 66.5 670.276 66.5H667.906V63.89H669.796C670.636 63.89 671.086 63.59 671.386 62.84L671.896 61.52H670.906L665.146 46.1ZM689.801 40.7H703.631V43.7H693.101V50.12H703.091V53.06H693.101V62H689.801V40.7ZM705.812 54.05C705.812 48.98 708.812 45.74 713.402 45.74C717.182 45.74 720.422 48.26 720.602 53.93V54.98H709.232C709.412 57.89 710.912 59.6 713.402 59.6C714.962 59.6 716.372 58.7 717.032 57.2L720.392 57.44C719.432 60.47 716.642 62.36 713.402 62.36C708.812 62.36 705.812 59.12 705.812 54.05ZM709.262 52.55H717.212C716.822 49.55 715.172 48.5 713.402 48.5C711.092 48.5 709.622 50 709.262 52.55ZM723.119 50.87C723.749 47.66 726.269 45.74 729.929 45.74C734.279 45.74 736.649 48.14 736.649 52.49V58.4C736.649 59.18 736.979 59.45 737.609 59.45H738.269V62H737.249C735.809 62.03 733.829 61.79 733.679 59.57C732.989 61.07 731.219 62.36 728.579 62.36C725.399 62.36 722.849 60.65 722.849 57.83C722.849 54.65 725.219 53.72 728.879 53L733.409 52.13C733.379 49.58 732.239 48.38 729.929 48.38C728.099 48.38 726.899 49.31 726.449 51.08L723.119 50.87ZM726.209 57.77C726.209 58.91 727.199 59.87 729.269 59.87C731.639 59.87 733.469 58.16 733.469 54.74V54.59L730.109 55.19C727.949 55.58 726.209 55.76 726.209 57.77ZM741.118 42.5H744.358V46.1H748.588V48.74H744.358V57.41C744.358 58.7 744.988 59.36 746.188 59.36H748.558V62H745.888C742.798 62 741.118 60.41 741.118 57.41V48.74H738.718V46.1H741.118V42.5ZM764.37 62H761.37L761.34 59.45C760.5 61.49 758.67 62.36 756.63 62.36C753.12 62.36 751.29 59.81 751.29 56.33V46.1H754.53V55.34C754.53 58.13 755.34 59.63 757.47 59.63C759.72 59.63 761.16 58.13 761.16 55.34V46.1H764.37V62ZM768.297 46.1H771.267L771.357 49.04C771.897 47.03 773.097 46.1 775.137 46.1H776.637V48.74H775.107C772.617 48.74 771.537 50.09 771.537 52.73V62H768.297V46.1ZM777.519 54.05C777.519 48.98 780.519 45.74 785.109 45.74C788.889 45.74 792.129 48.26 792.309 53.93V54.98H780.939C781.119 57.89 782.619 59.6 785.109 59.6C786.669 59.6 788.079 58.7 788.739 57.2L792.099 57.44C791.139 60.47 788.349 62.36 785.109 62.36C780.519 62.36 777.519 59.12 777.519 54.05ZM780.969 52.55H788.919C788.529 49.55 786.879 48.5 785.109 48.5C782.799 48.5 781.329 50 780.969 52.55ZM804.55 51.11C804.22 49.43 802.63 48.44 801.01 48.44C799.39 48.44 798.1 49.25 798.13 50.63C798.16 52.07 799.99 52.64 801.61 52.94C805.57 53.66 808.12 54.74 808.12 57.86C808.12 60.98 804.97 62.36 801.61 62.36C797.53 62.36 794.62 60.32 794.38 56.99L797.71 56.78C798.01 58.55 799.39 59.66 801.58 59.66C802.96 59.66 804.76 59.18 804.76 57.71C804.76 56 802.75 55.82 801.04 55.43C797.68 54.71 794.77 53.81 794.77 50.75C794.77 47.63 797.29 45.74 801.25 45.74C804.7 45.74 807.34 47.75 807.88 50.93L804.55 51.11Z" fill="white"/>
</g>
<g opacity="0.7" filter="url(#filter5_i_625_6385)">
<rect width="142" height="72" rx="22" transform="matrix(1 0 0 -1 866.5 88)" fill="#9A9AA5" fill-opacity="0.1"/>
</g>
<g opacity="0.5" filter="url(#filter6_i_625_6385)">
<rect width="142" height="72" rx="22" transform="matrix(1 0 0 -1 1028.55 108)" fill="#9A9AA5" fill-opacity="0.1"/>
</g>
<g opacity="0.3" filter="url(#filter7_i_625_6385)">
<rect width="142" height="72" rx="22" transform="matrix(1 0 0 -1 1190.59 148)" fill="#9A9AA5" fill-opacity="0.1"/>
</g>
<g opacity="0.15" filter="url(#filter8_i_625_6385)">
<rect width="142" height="72" rx="22" transform="matrix(1 0 0 -1 1352.64 228)" fill="#9A9AA5" fill-opacity="0.1"/>
</g>
<defs>
<filter id="filter0_i_625_6385" x="431.5" y="15" width="142" height="73" filterUnits="userSpaceOnUse" color-interpolation-filters="sRGB">
<feFlood flood-opacity="0" result="BackgroundImageFix"/>
<feBlend mode="normal" in="SourceGraphic" in2="BackgroundImageFix" result="shape"/>
<feColorMatrix in="SourceAlpha" type="matrix" values="0 0 0 0 0 0 0 0 0 0 0 0 0 0 0 0 0 0 127 0" result="hardAlpha"/>
<feOffset dy="-1"/>
<feGaussianBlur stdDeviation="2"/>
<feComposite in2="hardAlpha" operator="arithmetic" k2="-1" k3="1"/>
<feColorMatrix type="matrix" values="0 0 0 0 0.603922 0 0 0 0 0.603922 0 0 0 0 0.647059 0 0 0 0.1 0"/>
<feBlend mode="normal" in2="shape" result="effect1_innerShadow_625_6385"/>
</filter>
<filter id="filter1_i_625_6385" x="269.453" y="35" width="142" height="73" filterUnits="userSpaceOnUse" color-interpolation-filters="sRGB">
<feFlood flood-opacity="0" result="BackgroundImageFix"/>
<feBlend mode="normal" in="SourceGraphic" in2="BackgroundImageFix" result="shape"/>
<feColorMatrix in="SourceAlpha" type="matrix" values="0 0 0 0 0 0 0 0 0 0 0 0 0 0 0 0 0 0 127 0" result="hardAlpha"/>
<feOffset dy="-1"/>
<feGaussianBlur stdDeviation="2"/>
<feComposite in2="hardAlpha" operator="arithmetic" k2="-1" k3="1"/>
<feColorMatrix type="matrix" values="0 0 0 0 0.603922 0 0 0 0 0.603922 0 0 0 0 0.647059 0 0 0 0.1 0"/>
<feBlend mode="normal" in2="shape" result="effect1_innerShadow_625_6385"/>
</filter>
<filter id="filter2_i_625_6385" x="107.406" y="75" width="142" height="73" filterUnits="userSpaceOnUse" color-interpolation-filters="sRGB">
<feFlood flood-opacity="0" result="BackgroundImageFix"/>
<feBlend mode="normal" in="SourceGraphic" in2="BackgroundImageFix" result="shape"/>
<feColorMatrix in="SourceAlpha" type="matrix" values="0 0 0 0 0 0 0 0 0 0 0 0 0 0 0 0 0 0 127 0" result="hardAlpha"/>
<feOffset dy="-1"/>
<feGaussianBlur stdDeviation="2"/>
<feComposite in2="hardAlpha" operator="arithmetic" k2="-1" k3="1"/>
<feColorMatrix type="matrix" values="0 0 0 0 0.603922 0 0 0 0 0.603922 0 0 0 0 0.647059 0 0 0 0.1 0"/>
<feBlend mode="normal" in2="shape" result="effect1_innerShadow_625_6385"/>
</filter>
<filter id="filter3_i_625_6385" x="-54.6406" y="155" width="142" height="73" filterUnits="userSpaceOnUse" color-interpolation-filters="sRGB">
<feFlood flood-opacity="0" result="BackgroundImageFix"/>
<feBlend mode="normal" in="SourceGraphic" in2="BackgroundImageFix" result="shape"/>
<feColorMatrix in="SourceAlpha" type="matrix" values="0 0 0 0 0 0 0 0 0 0 0 0 0 0 0 0 0 0 127 0" result="hardAlpha"/>
<feOffset dy="-1"/>
<feGaussianBlur stdDeviation="2"/>
<feComposite in2="hardAlpha" operator="arithmetic" k2="-1" k3="1"/>
<feColorMatrix type="matrix" values="0 0 0 0 0.603922 0 0 0 0 0.603922 0 0 0 0 0.647059 0 0 0 0.1 0"/>
<feBlend mode="normal" in2="shape" result="effect1_innerShadow_625_6385"/>
</filter>
<filter id="filter4_di_625_6385" x="572.6" y="0.1" width="294.8" height="123.8" filterUnits="userSpaceOnUse" color-interpolation-filters="sRGB">
<feFlood flood-opacity="0" result="BackgroundImageFix"/>
<feColorMatrix in="SourceAlpha" type="matrix" values="0 0 0 0 0 0 0 0 0 0 0 0 0 0 0 0 0 0 127 0" result="hardAlpha"/>
<feOffset dy="11"/>
<feGaussianBlur stdDeviation="10.45"/>
<feColorMatrix type="matrix" values="0 0 0 0 0.0352941 0 0 0 0 0.0352941 0 0 0 0 0.0431373 0 0 0 0.1 0"/>
<feBlend mode="normal" in2="BackgroundImageFix" result="effect1_dropShadow_625_6385"/>
<feBlend mode="normal" in="SourceGraphic" in2="effect1_dropShadow_625_6385" result="shape"/>
<feColorMatrix in="SourceAlpha" type="matrix" values="0 0 0 0 0 0 0 0 0 0 0 0 0 0 0 0 0 0 127 0" result="hardAlpha"/>
<feOffset dy="-1"/>
<feGaussianBlur stdDeviation="2"/>
<feComposite in2="hardAlpha" operator="arithmetic" k2="-1" k3="1"/>
<feColorMatrix type="matrix" values="0 0 0 0 0.603922 0 0 0 0 0.603922 0 0 0 0 0.647059 0 0 0 0.1 0"/>
<feBlend mode="normal" in2="shape" result="effect2_innerShadow_625_6385"/>
</filter>
<filter id="filter5_i_625_6385" x="866.5" y="15" width="142" height="73" filterUnits="userSpaceOnUse" color-interpolation-filters="sRGB">
<feFlood flood-opacity="0" result="BackgroundImageFix"/>
<feBlend mode="normal" in="SourceGraphic" in2="BackgroundImageFix" result="shape"/>
<feColorMatrix in="SourceAlpha" type="matrix" values="0 0 0 0 0 0 0 0 0 0 0 0 0 0 0 0 0 0 127 0" result="hardAlpha"/>
<feOffset dy="-1"/>
<feGaussianBlur stdDeviation="2"/>
<feComposite in2="hardAlpha" operator="arithmetic" k2="-1" k3="1"/>
<feColorMatrix type="matrix" values="0 0 0 0 0.603922 0 0 0 0 0.603922 0 0 0 0 0.647059 0 0 0 0.1 0"/>
<feBlend mode="normal" in2="shape" result="effect1_innerShadow_625_6385"/>
</filter>
<filter id="filter6_i_625_6385" x="1028.55" y="35" width="142" height="73" filterUnits="userSpaceOnUse" color-interpolation-filters="sRGB">
<feFlood flood-opacity="0" result="BackgroundImageFix"/>
<feBlend mode="normal" in="SourceGraphic" in2="BackgroundImageFix" result="shape"/>
<feColorMatrix in="SourceAlpha" type="matrix" values="0 0 0 0 0 0 0 0 0 0 0 0 0 0 0 0 0 0 127 0" result="hardAlpha"/>
<feOffset dy="-1"/>
<feGaussianBlur stdDeviation="2"/>
<feComposite in2="hardAlpha" operator="arithmetic" k2="-1" k3="1"/>
<feColorMatrix type="matrix" values="0 0 0 0 0.603922 0 0 0 0 0.603922 0 0 0 0 0.647059 0 0 0 0.1 0"/>
<feBlend mode="normal" in2="shape" result="effect1_innerShadow_625_6385"/>
</filter>
<filter id="filter7_i_625_6385" x="1190.59" y="75" width="142" height="73" filterUnits="userSpaceOnUse" color-interpolation-filters="sRGB">
<feFlood flood-opacity="0" result="BackgroundImageFix"/>
<feBlend mode="normal" in="SourceGraphic" in2="BackgroundImageFix" result="shape"/>
<feColorMatrix in="SourceAlpha" type="matrix" values="0 0 0 0 0 0 0 0 0 0 0 0 0 0 0 0 0 0 127 0" result="hardAlpha"/>
<feOffset dy="-1"/>
<feGaussianBlur stdDeviation="2"/>
<feComposite in2="hardAlpha" operator="arithmetic" k2="-1" k3="1"/>
<feColorMatrix type="matrix" values="0 0 0 0 0.603922 0 0 0 0 0.603922 0 0 0 0 0.647059 0 0 0 0.1 0"/>
<feBlend mode="normal" in2="shape" result="effect1_innerShadow_625_6385"/>
</filter>
<filter id="filter8_i_625_6385" x="1352.64" y="155" width="142" height="73" filterUnits="userSpaceOnUse" color-interpolation-filters="sRGB">
<feFlood flood-opacity="0" result="BackgroundImageFix"/>
<feBlend mode="normal" in="SourceGraphic" in2="BackgroundImageFix" result="shape"/>
<feColorMatrix in="SourceAlpha" type="matrix" values="0 0 0 0 0 0 0 0 0 0 0 0 0 0 0 0 0 0 127 0" result="hardAlpha"/>
<feOffset dy="-1"/>
<feGaussianBlur stdDeviation="2"/>
<feComposite in2="hardAlpha" operator="arithmetic" k2="-1" k3="1"/>
<feColorMatrix type="matrix" values="0 0 0 0 0.603922 0 0 0 0 0.603922 0 0 0 0 0.647059 0 0 0 0.1 0"/>
<feBlend mode="normal" in2="shape" result="effect1_innerShadow_625_6385"/>
</filter>
</defs>
</svg>
