<svg width="111" height="110" viewBox="0 0 111 110" fill="none" xmlns="http://www.w3.org/2000/svg">
<path d="M110.104 55.0553C110.104 51.5738 109.767 48.2045 109.205 44.8353L95.5038 40.006L106.847 36.0753C106.622 35.4014 106.398 34.7276 106.061 34.166C97.7499 14.2875 78.3206 0.361328 55.5221 0.361328C41.4836 0.361328 28.7928 5.6398 19.1343 14.2875C19.022 14.3998 18.9097 14.5121 18.7974 14.6244C18.4605 14.9614 18.1236 15.2983 17.7866 15.6352C17.4497 15.9721 17.2251 16.1968 16.8882 16.5337C16.7759 16.646 16.5512 16.8706 16.4389 16.9829C6.78045 26.6414 0.828125 40.1184 0.828125 55.0553C0.828125 58.5369 1.16505 61.9061 1.72659 65.2753L15.5405 69.9923L4.19736 73.923C4.42198 74.5969 4.6466 75.2707 4.98352 75.8323C13.182 95.7108 32.7236 109.637 55.5221 109.637C70.3468 109.637 83.8237 103.685 93.7068 94.0262C93.8191 93.9139 94.0438 93.6893 94.1561 93.5769C94.2684 93.4646 94.3807 93.3523 94.493 93.24C104.151 83.4692 110.104 69.9923 110.104 55.0553ZM81.353 83.9185C75.9622 88.9723 66.1914 92.7908 55.1852 92.4539C55.0729 92.4539 54.8483 92.4539 54.736 92.4539C38.6759 91.78 25.9851 84.48 25.3113 75.1584C25.3113 75.0461 25.3113 74.9338 25.3113 74.7092C25.3113 74.4846 25.3113 74.1477 25.3113 73.923C25.5359 68.8692 28.9051 65.5 28.9051 65.5C28.9051 65.5 19.1343 62.0184 16.5512 61.0076C26.7713 59.323 35.5313 57.1892 42.9436 57.0769C65.6298 56.7399 76.2991 62.3553 81.4653 67.2969C81.5776 67.4092 81.8022 67.6338 81.9145 67.7461C82.0268 67.8584 82.0268 67.9707 82.1391 67.9707C85.8453 72.1261 85.9576 78.7523 82.2514 83.02C81.8022 83.3569 81.5776 83.5815 81.353 83.9185ZM29.6913 26.0799C35.0821 21.026 44.8529 17.2075 55.7467 17.5444C55.859 17.5444 56.0837 17.5444 56.196 17.5444C72.256 18.3306 85.0591 25.6306 85.733 34.9522C85.733 35.0645 85.733 35.1768 85.733 35.4014C85.733 35.626 85.733 35.963 85.733 36.1876C85.5083 41.2414 82.1391 44.6107 82.1391 44.6107C82.1391 44.6107 91.9099 48.0922 94.493 49.103C84.273 50.7876 75.5129 52.9215 68.1006 53.0338C45.4144 53.3707 34.7451 47.7553 29.579 42.8137C29.4667 42.7014 29.242 42.4768 29.1297 42.3645C29.0174 42.2522 29.0174 42.1399 28.9051 42.1399C24.9743 37.7599 25.0866 30.6845 29.242 26.5291C29.4667 26.3045 29.579 26.1922 29.6913 26.0799Z" fill="white"/>
</svg>
